<svg width="36" height="36" viewBox="0 0 36 36" fill="none" xmlns="http://www.w3.org/2000/svg">
<path fill-rule="evenodd" clip-rule="evenodd" d="M25.2682 10.3741C25.2682 14.2029 22.1643 17.3068 18.3355 17.3068C14.5067 17.3068 11.4028 14.2029 11.4028 10.3741C11.4028 6.54528 14.5067 3.44141 18.3355 3.44141C22.1643 3.44141 25.2682 6.54528 25.2682 10.3741ZM24.2079 18.3858C26.67 16.5781 28.2682 13.6627 28.2682 10.3741C28.2682 4.88843 23.8212 0.441406 18.3355 0.441406C12.8498 0.441406 8.40278 4.88843 8.40278 10.3741C8.40278 13.7723 10.1093 16.7719 12.712 18.5627C10.4299 19.2602 8.28184 20.3631 6.45339 21.8737C3.11186 24.6345 0.891907 28.7197 0.891907 33.9776C0.891907 34.806 1.56348 35.4776 2.39191 35.4776C3.22033 35.4776 3.89191 34.806 3.89191 33.9776C3.89191 29.6489 5.68546 26.3996 8.36418 24.1865C11.0759 21.9461 14.748 20.7311 18.4729 20.6641C22.1982 20.597 25.8478 21.6797 28.536 23.8684C31.1858 26.0258 32.9999 29.3329 32.9999 33.9776C32.9999 34.806 33.6715 35.4776 34.4999 35.4776C35.3284 35.4776 35.9999 34.806 35.9999 33.9776C35.9999 28.4579 33.8006 24.2861 30.4301 21.5419C28.6076 20.0581 26.4724 19.0143 24.2079 18.3858Z" fill="#E2DCCF"/>
</svg>
