<svg width="39" height="36" viewBox="0 0 39 36" fill="none" xmlns="http://www.w3.org/2000/svg">
<path fill-rule="evenodd" clip-rule="evenodd" d="M4.54811 2.98008C3.37647 2.90268 2.12066 2.961 1.33287 3.03888C0.664552 3.10495 0.0703492 2.605 0.00567769 1.92221C-0.0589937 1.23942 0.430356 0.632348 1.09867 0.566275C1.98323 0.478825 3.37351 0.413144 4.705 0.501102C5.37007 0.545036 6.05411 0.629338 6.66761 0.78167C7.25018 0.926321 7.91462 1.16618 8.41282 1.61529C8.84963 2.00905 9.19351 2.60483 9.47104 3.18436C9.76576 3.79978 10.0554 4.54979 10.3375 5.37862C10.9024 7.03867 11.4705 9.115 12.0089 11.2774C12.7253 14.1543 13.4083 17.2647 13.9675 19.8115C14.2456 21.0779 14.493 22.2049 14.6988 23.0946C14.8846 23.8979 15.8246 25.4451 18.3709 25.4451H34.6003C35.2717 25.4451 35.8161 26.0012 35.8161 26.6872C35.8161 27.3731 35.2717 27.9292 34.6003 27.9292H18.3709C14.6019 27.9292 12.755 25.4926 12.3325 23.6659C12.1153 22.7269 11.8616 21.5711 11.5797 20.2867C11.0253 17.7611 10.3618 14.7384 9.65249 11.8899C9.11966 9.75012 8.57165 7.75421 8.04083 6.19444C7.77501 5.41336 7.52183 4.76657 7.28695 4.2761C7.03487 3.74973 6.86236 3.53052 6.80411 3.47802C6.75206 3.43109 6.55132 3.30926 6.09339 3.19556C5.6664 3.08954 5.13461 3.01882 4.54811 2.98008Z" fill="#E2DCCF"/>
<path fill-rule="evenodd" clip-rule="evenodd" d="M8.81552 6.40115C9.04605 6.10221 9.398 5.92773 9.7705 5.92773H37.7842C38.1554 5.92773 38.5063 6.10105 38.7369 6.39831C38.9676 6.69557 39.0526 7.08419 38.9678 7.45346L35.8911 20.8538C35.7622 21.4153 35.272 21.8122 34.7075 21.8122H12.9281C12.3663 21.8122 11.8776 21.4189 11.7461 20.8609L8.58853 7.46052C8.50134 7.09052 8.585 6.7001 8.81552 6.40115ZM11.3137 8.41189L13.8859 19.3281H33.744L36.2503 8.41189H11.3137Z" fill="#E2DCCF"/>
<path d="M20.8633 32.4404C20.8633 34.1078 19.5402 35.4596 17.9081 35.4596C16.276 35.4596 14.9529 34.1078 14.9529 32.4404C14.9529 30.7729 16.276 29.4211 17.9081 29.4211C19.5402 29.4211 20.8633 30.7729 20.8633 32.4404Z" fill="#E2DCCF"/>
<path d="M33.736 32.4404C33.736 34.1078 32.4129 35.4596 30.7808 35.4596C29.1486 35.4596 27.8256 34.1078 27.8256 32.4404C27.8256 30.7729 29.1486 29.4211 30.7808 29.4211C32.4129 29.4211 33.736 30.7729 33.736 32.4404Z" fill="#E2DCCF"/>
</svg>
