<svg width="35" height="34" viewBox="0 0 35 34" fill="none" xmlns="http://www.w3.org/2000/svg">
<path d="M17.5 12.7553C16.6825 12.7553 15.8833 12.9977 15.2036 13.4518C14.5239 13.906 13.9941 14.5516 13.6813 15.3068C13.3684 16.0621 13.2866 16.8932 13.4461 17.695C13.6056 18.4968 13.9992 19.2332 14.5773 19.8113C15.1553 20.3894 15.8918 20.783 16.6936 20.9425C17.4954 21.102 18.3265 21.0201 19.0817 20.7073C19.837 20.3945 20.4825 19.8647 20.9367 19.1849C21.3909 18.5052 21.6333 17.7061 21.6333 16.8886C21.6333 16.3458 21.5264 15.8083 21.3187 15.3068C21.111 14.8054 20.8065 14.3497 20.4227 13.9659C20.0389 13.5821 19.5832 13.2776 19.0817 13.0699C18.5803 12.8622 18.0428 12.7553 17.5 12.7553ZM34.05 8.67192C34.0412 7.38485 33.8042 6.10954 33.35 4.90526C33.0155 4.02402 32.4979 3.22375 31.8313 2.55723C31.1648 1.89072 30.3645 1.37312 29.4833 1.03859C28.279 0.584363 27.0037 0.347359 25.7166 0.33859C23.5666 0.221924 22.9333 0.221924 17.5 0.221924C12.0666 0.221924 11.4333 0.221924 9.28331 0.33859C7.99624 0.347359 6.72093 0.584363 5.51665 1.03859C4.63541 1.37312 3.83514 1.89072 3.16862 2.55723C2.50211 3.22375 1.98451 4.02402 1.64998 4.90526C1.19575 6.10954 0.958748 7.38485 0.94998 8.67192C0.833313 10.8219 0.833313 11.4553 0.833313 16.8886C0.833313 22.3219 0.833313 22.9553 0.94998 25.1053C0.967919 26.3969 1.2046 27.6761 1.64998 28.8886C1.98303 29.7658 2.50019 30.5614 3.16665 31.2219C3.8303 31.8924 4.6323 32.41 5.51665 32.7386C6.72093 33.1928 7.99624 33.4298 9.28331 33.4386C11.4333 33.5553 12.0666 33.5553 17.5 33.5553C22.9333 33.5553 23.5666 33.5553 25.7166 33.4386C27.0037 33.4298 28.279 33.1928 29.4833 32.7386C30.3677 32.41 31.1697 31.8924 31.8333 31.2219C32.4998 30.5614 33.0169 29.7658 33.35 28.8886C33.8038 27.6784 34.0407 26.3977 34.05 25.1053C34.1666 22.9553 34.1666 22.3219 34.1666 16.8886C34.1666 11.4553 34.1666 10.8219 34.05 8.67192ZM29.8166 22.0053C29.7632 23.0338 29.5437 24.0469 29.1666 25.0053C28.8431 25.8047 28.3621 26.531 27.7522 27.1408C27.1424 27.7507 26.4161 28.2317 25.6166 28.5553C24.6492 28.9112 23.6304 29.1082 22.6 29.1386C21.2833 29.1386 20.9333 29.1386 17.5 29.1386C14.0666 29.1386 13.7166 29.1386 12.4 29.1386C11.3695 29.1082 10.3508 28.9112 9.38331 28.5553C8.55682 28.2481 7.81044 27.7581 7.19998 27.1219C6.59609 26.524 6.12972 25.8017 5.83331 25.0053C5.47591 24.0388 5.28432 23.0189 5.26665 21.9886C5.26665 20.6719 5.26665 20.3219 5.26665 16.8886C5.26665 13.4553 5.26665 13.1053 5.26665 11.7886C5.28432 10.7583 5.47591 9.7384 5.83331 8.77192C6.14045 7.94543 6.63044 7.19905 7.26665 6.58859C7.8672 5.98796 8.58875 5.52208 9.38331 5.22192C10.3508 4.86593 11.3695 4.66894 12.4 4.63859C13.7166 4.63859 14.0666 4.63859 17.5 4.63859C20.9333 4.63859 21.2833 4.63859 22.6 4.63859C23.6304 4.66894 24.6492 4.86593 25.6166 5.22192C26.4431 5.52906 27.1895 6.01905 27.8 6.65526C28.4039 7.25317 28.8702 7.97548 29.1666 8.77192C29.5226 9.7394 29.7196 10.7581 29.75 11.7886C29.75 13.1053 29.75 13.4553 29.75 16.8886C29.75 20.3219 29.8666 20.6719 29.8166 21.9886V22.0053ZM27.15 9.60526C26.9515 9.0669 26.6387 8.578 26.233 8.17228C25.8272 7.76657 25.3383 7.4537 24.8 7.25526C24.0608 6.99902 23.2822 6.87491 22.5 6.88859C21.2 6.88859 20.8333 6.88859 17.5 6.88859C14.1666 6.88859 13.8 6.88859 12.5 6.88859C11.7138 6.89628 10.9351 7.04298 10.2 7.32192C9.66986 7.51135 9.18614 7.81145 8.78095 8.20226C8.37577 8.59307 8.05841 9.06565 7.84998 9.58859C7.60794 10.3309 7.48969 11.1079 7.49998 11.8886C7.49998 13.1886 7.49998 13.5553 7.49998 16.8886C7.49998 20.2219 7.49998 20.5886 7.49998 21.8886C7.5165 22.6739 7.66293 23.4511 7.93331 24.1886C8.13175 24.7269 8.44462 25.2159 8.85034 25.6216C9.25605 26.0273 9.74495 26.3402 10.2833 26.5386C10.9944 26.8001 11.7427 26.9464 12.5 26.9719C13.8 26.9719 14.1666 26.9719 17.5 26.9719C20.8333 26.9719 21.2 26.9719 22.5 26.9719C23.2862 26.9642 24.0649 26.8175 24.8 26.5386C25.3383 26.3402 25.8272 26.0273 26.233 25.6216C26.6387 25.2159 26.9515 24.7269 27.15 24.1886C27.4289 23.4535 27.5756 22.6748 27.5833 21.8886C27.5833 20.5886 27.5833 20.2219 27.5833 16.8886C27.5833 13.5553 27.5833 13.1886 27.5833 11.8886C27.5838 11.1016 27.4368 10.3215 27.15 9.58859V9.60526ZM17.5 23.2553C16.6647 23.2553 15.8376 23.0905 15.0661 22.7703C14.2946 22.4501 13.5938 21.9809 13.0039 21.3895C12.4141 20.7981 11.9467 20.0961 11.6286 19.3237C11.3104 18.5514 11.1478 17.7239 11.15 16.8886C11.15 15.6287 11.5238 14.3971 12.2241 13.3497C12.9244 12.3024 13.9198 11.4864 15.0841 11.005C16.2484 10.5236 17.5294 10.3985 18.7649 10.6455C20.0003 10.8925 21.1347 11.5005 22.0245 12.3926C22.9142 13.2847 23.5192 14.4207 23.763 15.6568C24.0068 16.8929 23.8783 18.1735 23.3939 19.3366C22.9094 20.4996 22.0908 21.4928 21.0416 22.1904C19.9925 22.888 18.7599 23.2586 17.5 23.2553ZM24.1666 11.7719C23.7982 11.7329 23.4573 11.559 23.2095 11.2835C22.9617 11.0081 22.8245 10.6507 22.8245 10.2803C22.8245 9.90977 22.9617 9.55239 23.2095 9.27697C23.4573 9.00156 23.7982 8.82759 24.1666 8.78859C24.5351 8.82759 24.876 9.00156 25.1238 9.27697C25.3716 9.55239 25.5088 9.90977 25.5088 10.2803C25.5088 10.6507 25.3716 11.0081 25.1238 11.2835C24.876 11.559 24.5351 11.7329 24.1666 11.7719Z" fill="#E2DCCF"/>
</svg>
