<svg width="211" height="34" viewBox="0 0 211 34" fill="none" xmlns="http://www.w3.org/2000/svg">
<path d="M20.5 0.300293L25.1439 12.0192L37.5 12.9052L28.014 21.0338L31.0065 33.3003L20.5 26.6052L9.99338 33.3003L12.986 21.0338L3.49996 12.9052L15.8561 12.0192L20.5 0.300293Z" fill="#B88A4A"/>
<path d="M63 0.300293L67.7805 12.0192L80.5 12.9052L70.735 21.0338L73.8156 33.3003L63 26.6052L52.1844 33.3003L55.265 21.0338L45.5 12.9052L58.2195 12.0192L63 0.300293Z" fill="#B88A4A"/>
<path d="M105.5 0.300293L110.144 12.0192L122.5 12.9052L113.014 21.0338L116.007 33.3003L105.5 26.6052L94.9934 33.3003L97.986 21.0338L88.5 12.9052L100.856 12.0192L105.5 0.300293Z" fill="#B88A4A"/>
<path d="M148 0.300293L152.78 12.0192L165.5 12.9052L155.735 21.0338L158.816 33.3003L148 26.6052L137.184 33.3003L140.265 21.0338L130.5 12.9052L143.219 12.0192L148 0.300293Z" fill="#B88A4A"/>
<path d="M190.5 0.300293L195.144 12.0192L207.5 12.9052L198.014 21.0338L201.007 33.3003L190.5 26.6052L179.993 33.3003L182.986 21.0338L173.5 12.9052L185.856 12.0192L190.5 0.300293Z" fill="#E2DCCF"/>
</svg>
