<svg width="802" height="207" viewBox="0 0 802 207" fill="none" xmlns="http://www.w3.org/2000/svg">
<path d="M4.81201 18.5598L2.40576 17.9583L3.18994 10.009H10.7417V12.5872H5.66064L5.37061 15.9495C5.53532 15.8349 5.77881 15.7096 6.10107 15.5735C6.4305 15.4374 6.79574 15.3694 7.19678 15.3694C7.84131 15.3694 8.41423 15.4875 8.91553 15.7239C9.41683 15.9602 9.83936 16.304 10.1831 16.7551C10.5269 17.2063 10.7882 17.7577 10.9673 18.4094C11.1463 19.0611 11.2358 19.7987 11.2358 20.6223C11.2358 21.317 11.1392 21.9794 10.9458 22.6096C10.7596 23.2398 10.4767 23.7984 10.0972 24.2854C9.71761 24.7724 9.24137 25.1591 8.66846 25.4456C8.09554 25.7249 7.42594 25.8645 6.65967 25.8645C6.07959 25.8645 5.51742 25.7642 4.97314 25.5637C4.43604 25.3632 3.95264 25.066 3.52295 24.6721C3.09326 24.2711 2.74951 23.7913 2.4917 23.2327C2.23389 22.6669 2.10498 22.0224 2.10498 21.2991H5.08057C5.10921 21.7216 5.19157 22.0904 5.32764 22.4055C5.47087 22.7135 5.6499 22.9498 5.86475 23.1145C6.08675 23.2792 6.34456 23.3616 6.63818 23.3616C6.92464 23.3616 7.17171 23.29 7.37939 23.1467C7.58708 22.9963 7.75179 22.7887 7.87354 22.5237C7.99528 22.2587 8.0848 21.9508 8.14209 21.5999C8.19938 21.2418 8.22803 20.8586 8.22803 20.4504C8.22803 20.0351 8.18864 19.6591 8.10986 19.3225C8.03825 18.9859 7.92367 18.6995 7.76611 18.4631C7.61572 18.2196 7.42236 18.0334 7.18604 17.9045C6.94971 17.7685 6.67041 17.7004 6.34814 17.7004C5.9113 17.7004 5.58187 17.7935 5.35986 17.9797C5.14502 18.1588 4.9624 18.3521 4.81201 18.5598Z" fill="#E2DCCF"/>
<path d="M11.4292 62.7629V65.2659H1.87939L1.73975 63.3L7.05713 53.009H9.44189L7.00342 57.5852L4.68311 62.7629H11.4292ZM10.0972 53.009V68.6497H7.07861V53.009H10.0972Z" fill="#E2DCCF"/>
<path d="M4.79053 102.444H6.25146C6.63102 102.444 6.94255 102.358 7.18604 102.186C7.42952 102.007 7.60856 101.756 7.72314 101.434C7.83773 101.112 7.89502 100.736 7.89502 100.306C7.89502 99.9049 7.84131 99.554 7.73389 99.2532C7.62646 98.9524 7.46175 98.7161 7.23975 98.5442C7.01774 98.3723 6.73844 98.2864 6.40186 98.2864C6.14404 98.2864 5.90413 98.358 5.68213 98.5012C5.46012 98.6444 5.28109 98.8486 5.14502 99.1135C5.01611 99.3713 4.95166 99.6829 4.95166 100.048H1.92236C1.92236 99.1887 2.1193 98.4403 2.51318 97.803C2.90706 97.1656 3.43701 96.6679 4.10303 96.3098C4.76904 95.9517 5.50667 95.7727 6.31592 95.7727C7.22542 95.7727 8.02393 95.9446 8.71143 96.2883C9.39893 96.6249 9.93604 97.1262 10.3228 97.7922C10.7095 98.4511 10.9028 99.2675 10.9028 100.241C10.9028 100.743 10.8062 101.226 10.6128 101.692C10.4266 102.157 10.1545 102.576 9.79639 102.948C9.43831 103.314 9.00146 103.604 8.48584 103.819C7.97738 104.033 7.3973 104.141 6.74561 104.141H4.79053V102.444ZM4.79053 104.882V103.239H6.74561C7.47607 103.239 8.11344 103.335 8.65771 103.529C9.20915 103.715 9.6639 103.987 10.022 104.345C10.3872 104.703 10.6593 105.129 10.8384 105.623C11.0174 106.117 11.1069 106.662 11.1069 107.256C11.1069 107.987 10.9852 108.638 10.7417 109.211C10.4982 109.784 10.158 110.267 9.72119 110.661C9.28434 111.055 8.77588 111.356 8.1958 111.564C7.61572 111.764 6.98551 111.865 6.30518 111.865C5.73942 111.865 5.18441 111.775 4.64014 111.596C4.10303 111.417 3.61963 111.141 3.18994 110.769C2.76025 110.396 2.42008 109.927 2.16943 109.362C1.91878 108.796 1.79346 108.126 1.79346 107.353H4.80127C4.80127 107.74 4.8693 108.087 5.00537 108.395C5.14144 108.696 5.32764 108.932 5.56396 109.104C5.80745 109.276 6.07959 109.362 6.38037 109.362C6.73128 109.362 7.03564 109.272 7.29346 109.093C7.55127 108.914 7.74821 108.663 7.88428 108.341C8.02035 108.019 8.08838 107.643 8.08838 107.213C8.08838 106.662 8.01676 106.218 7.87354 105.881C7.73031 105.537 7.52262 105.287 7.25049 105.129C6.97835 104.964 6.64893 104.882 6.26221 104.882H4.79053Z" fill="#E2DCCF"/>
<path d="M11.3003 152.147V154.65H2.0835V152.512L6.31592 147.13C6.72412 146.564 7.04281 146.07 7.27197 145.648C7.50114 145.218 7.66585 144.835 7.76611 144.498C7.86637 144.155 7.9165 143.832 7.9165 143.531C7.9165 143.066 7.86279 142.669 7.75537 142.339C7.64795 142.003 7.48682 141.745 7.27197 141.566C7.06429 141.379 6.80648 141.286 6.49854 141.286C6.12614 141.286 5.8182 141.401 5.57471 141.63C5.33122 141.859 5.1486 142.174 5.02686 142.575C4.91227 142.969 4.85498 143.417 4.85498 143.918H1.83643C1.83643 142.98 2.0262 142.121 2.40576 141.34C2.79248 140.559 3.33317 139.94 4.02783 139.482C4.72965 139.016 5.57113 138.783 6.55225 138.783C7.51188 138.783 8.31396 138.962 8.9585 139.321C9.61019 139.679 10.1007 140.191 10.4302 140.857C10.7668 141.516 10.9351 142.303 10.9351 143.22C10.9351 143.743 10.867 144.251 10.731 144.745C10.5949 145.232 10.4015 145.719 10.1509 146.206C9.90023 146.686 9.59229 147.177 9.22705 147.678C8.86182 148.179 8.45003 148.698 7.9917 149.236L5.95068 152.147H11.3003Z" fill="#E2DCCF"/>
<path d="M8.75439 181.977V197.65H5.74658V185.672L2.76025 186.822V184.308L8.43213 181.977H8.75439Z" fill="#E2DCCF"/>
<path d="M39 0.477539L43.3184 11.1555L54.8082 11.9628L45.9872 19.3695L48.77 30.5464L39 24.446L29.2301 30.5464L32.0129 19.3695L23.1919 11.9628L34.6817 11.1555L39 0.477539Z" fill="#B88A4A"/>
<path d="M39 44.5464L43.3184 55.2244L54.8082 56.0317L45.9872 63.4383L48.77 74.6152L39 68.5148L29.2301 74.6152L32.0129 63.4383L23.1919 56.0317L34.6817 55.2244L39 44.5464Z" fill="#B88A4A"/>
<path d="M39 88.6152L43.3184 99.2932L54.8082 100.101L45.9872 107.507L48.77 118.684L39 112.584L29.2301 118.684L32.0129 107.507L23.1919 100.101L34.6817 99.2932L39 88.6152Z" fill="#B88A4A"/>
<path d="M39 132.684L43.3184 143.362L54.8082 144.169L45.9872 151.576L48.77 162.753L39 156.653L29.2301 162.753L32.0129 151.576L23.1919 144.169L34.6817 143.362L39 132.684Z" fill="#B88A4A"/>
<path d="M39 176.753L43.3184 187.431L54.8082 188.238L45.9872 195.645L48.77 206.822L39 200.721L29.2301 206.822L32.0129 195.645L23.1919 188.238L34.6817 187.431L39 176.753Z" fill="#B88A4A"/>
<rect x="65.8082" y="1.14966" width="675" height="33" rx="10" fill="white"/>
<rect x="65.8082" y="1.14966" width="605.205" height="33" rx="10" fill="#B88A4A"/>
<rect x="65.8082" y="44.1497" width="675" height="33" rx="10" fill="white"/>
<rect x="65.8082" y="44.1497" width="490.219" height="33" rx="10" fill="#B88A4A"/>
<rect x="65.8082" y="87.1497" width="675" height="33" rx="10" fill="white"/>
<rect x="65.8082" y="87.1497" width="431.577" height="33" rx="10" fill="#B88A4A"/>
<rect x="65.8082" y="130.15" width="675" height="33" rx="10" fill="white"/>
<rect x="65.8082" y="130.15" width="204.921" height="33" rx="10" fill="#B88A4A"/>
<rect x="65.8082" y="173.15" width="675" height="33" rx="10" fill="white"/>
<rect x="65.8082" y="173.15" width="132.582" height="33" rx="10" fill="#B88A4A"/>
<path d="M759.5 9.97681V25.6497H756.492V13.6721L753.505 14.8215V12.3079L759.177 9.97681H759.5ZM767.062 23.0071V25.1233C767.062 25.9325 766.862 26.7454 766.461 27.5618C766.059 28.3853 765.551 29.0585 764.935 29.5813L763.324 28.7434C763.503 28.414 763.678 28.081 763.85 27.7444C764.022 27.4078 764.165 27.039 764.28 26.6379C764.394 26.2369 764.452 25.7821 764.452 25.2737V23.0071H767.062ZM771.294 23.2112H771.445C772.132 23.2112 772.72 23.1109 773.207 22.9104C773.701 22.7099 774.102 22.4163 774.41 22.0295C774.725 21.6357 774.954 21.1523 775.097 20.5793C775.24 20.0064 775.312 19.3547 775.312 18.6243V15.6057C775.312 15.0471 775.273 14.5637 775.194 14.1555C775.115 13.7402 775.004 13.3964 774.861 13.1243C774.718 12.845 774.557 12.6373 774.378 12.5012C774.198 12.3652 774.005 12.2971 773.797 12.2971C773.554 12.2971 773.339 12.3795 773.153 12.5442C772.967 12.7089 772.809 12.9345 772.68 13.2209C772.558 13.5002 772.465 13.8189 772.401 14.177C772.336 14.5351 772.304 14.9039 772.304 15.2834C772.304 15.6845 772.336 16.0605 772.401 16.4114C772.465 16.7623 772.562 17.0738 772.691 17.3459C772.82 17.6181 772.985 17.8293 773.185 17.9797C773.386 18.1301 773.626 18.2053 773.905 18.2053C774.134 18.2053 774.345 18.1409 774.539 18.012C774.732 17.8759 774.9 17.6969 775.044 17.4749C775.187 17.2528 775.301 17.0094 775.387 16.7444C775.473 16.4794 775.52 16.2073 775.527 15.928L776.504 16.5403C776.504 17.0273 776.415 17.5107 776.236 17.9905C776.064 18.4703 775.824 18.9071 775.516 19.301C775.208 19.6949 774.85 20.01 774.442 20.2463C774.041 20.4755 773.608 20.5901 773.142 20.5901C772.519 20.5901 771.968 20.4576 771.488 20.1926C771.008 19.9277 770.603 19.5588 770.274 19.0862C769.952 18.6064 769.708 18.0478 769.544 17.4104C769.379 16.7659 769.296 16.0712 769.296 15.3264C769.296 14.5673 769.4 13.8547 769.608 13.1887C769.823 12.5155 770.127 11.9247 770.521 11.4163C770.915 10.9078 771.391 10.5103 771.95 10.2239C772.508 9.93026 773.131 9.78345 773.819 9.78345C774.499 9.78345 775.115 9.93384 775.667 10.2346C776.218 10.5354 776.691 10.9687 777.085 11.5344C777.478 12.093 777.779 12.7662 777.987 13.554C778.202 14.3346 778.309 15.2083 778.309 16.175V17.26C778.309 18.2841 778.22 19.2366 778.041 20.1174C777.862 20.9911 777.589 21.7789 777.224 22.4807C776.859 23.1825 776.404 23.7841 775.86 24.2854C775.316 24.7795 774.678 25.1591 773.948 25.4241C773.225 25.6819 772.405 25.8108 771.488 25.8108H771.294V23.2112ZM789.503 21.3528C789.503 22.3411 789.309 23.1718 788.922 23.845C788.543 24.511 788.013 25.0159 787.333 25.3596C786.659 25.6962 785.893 25.8645 785.034 25.8645C784.174 25.8645 783.405 25.6962 782.724 25.3596C782.044 25.0159 781.507 24.511 781.113 23.845C780.719 23.1718 780.522 22.3411 780.522 21.3528C780.522 20.6939 780.633 20.0959 780.855 19.5588C781.077 19.0217 781.389 18.5634 781.79 18.1838C782.198 17.7971 782.674 17.5035 783.218 17.303C783.77 17.0953 784.368 16.9915 785.012 16.9915C785.879 16.9915 786.649 17.1741 787.322 17.5393C788.002 17.8974 788.536 18.4023 788.922 19.054C789.309 19.7056 789.503 20.4719 789.503 21.3528ZM786.484 21.1379C786.484 20.6724 786.423 20.2714 786.301 19.9348C786.187 19.5982 786.018 19.3404 785.796 19.1614C785.582 18.9752 785.32 18.8821 785.012 18.8821C784.711 18.8821 784.45 18.9752 784.228 19.1614C784.006 19.3404 783.834 19.5982 783.712 19.9348C783.598 20.2714 783.541 20.6724 783.541 21.1379C783.541 21.5963 783.598 21.9902 783.712 22.3196C783.834 22.649 784.006 22.9068 784.228 23.093C784.45 23.2721 784.719 23.3616 785.034 23.3616C785.342 23.3616 785.603 23.2721 785.818 23.093C786.04 22.9068 786.205 22.649 786.312 22.3196C786.427 21.9902 786.484 21.5963 786.484 21.1379ZM789.245 14.1663C789.245 14.9683 789.066 15.6737 788.708 16.2825C788.35 16.8912 787.852 17.3674 787.214 17.7112C786.584 18.0549 785.857 18.2268 785.034 18.2268C784.203 18.2268 783.469 18.0549 782.832 17.7112C782.194 17.3674 781.693 16.8912 781.328 16.2825C780.97 15.6666 780.791 14.9612 780.791 14.1663C780.791 13.2209 780.97 12.4224 781.328 11.7708C781.693 11.1191 782.194 10.6249 782.832 10.2883C783.469 9.95174 784.199 9.78345 785.023 9.78345C785.854 9.78345 786.584 9.95174 787.214 10.2883C787.852 10.6249 788.35 11.1191 788.708 11.7708C789.066 12.4224 789.245 13.2209 789.245 14.1663ZM786.237 14.3167C786.237 13.9084 786.19 13.554 786.097 13.2532C786.011 12.9524 785.879 12.7161 785.7 12.5442C785.521 12.3723 785.295 12.2864 785.023 12.2864C784.765 12.2864 784.543 12.3687 784.357 12.5334C784.178 12.6982 784.042 12.9309 783.949 13.2317C783.856 13.5325 783.809 13.8941 783.809 14.3167C783.809 14.732 783.852 15.0937 783.938 15.4016C784.031 15.7096 784.171 15.9495 784.357 16.1213C784.543 16.2932 784.769 16.3792 785.034 16.3792C785.306 16.3792 785.528 16.2932 785.7 16.1213C785.879 15.9423 786.011 15.6988 786.097 15.3909C786.19 15.0829 786.237 14.7249 786.237 14.3167ZM794.336 18.5598L791.93 17.9583L792.714 10.009H800.266V12.5872H795.185L794.895 15.9495C795.06 15.8349 795.303 15.7096 795.626 15.5735C795.955 15.4374 796.32 15.3694 796.721 15.3694C797.366 15.3694 797.939 15.4875 798.44 15.7239C798.941 15.9602 799.364 16.304 799.708 16.7551C800.051 17.2063 800.313 17.7577 800.492 18.4094C800.671 19.0611 800.76 19.7987 800.76 20.6223C800.76 21.317 800.664 21.9794 800.47 22.6096C800.284 23.2398 800.001 23.7984 799.622 24.2854C799.242 24.7724 798.766 25.1591 798.193 25.4456C797.62 25.7249 796.95 25.8645 796.184 25.8645C795.604 25.8645 795.042 25.7642 794.498 25.5637C793.961 25.3632 793.477 25.066 793.047 24.6721C792.618 24.2711 792.274 23.7913 792.016 23.2327C791.758 22.6669 791.629 22.0224 791.629 21.2991H794.605C794.634 21.7216 794.716 22.0904 794.852 22.4055C794.995 22.7135 795.174 22.9498 795.389 23.1145C795.611 23.2792 795.869 23.3616 796.163 23.3616C796.449 23.3616 796.696 23.29 796.904 23.1467C797.112 22.9963 797.276 22.7887 797.398 22.5237C797.52 22.2587 797.609 21.9508 797.667 21.5999C797.724 21.2418 797.753 20.8586 797.753 20.4504C797.753 20.0351 797.713 19.6591 797.634 19.3225C797.563 18.9859 797.448 18.6995 797.291 18.4631C797.14 18.2196 796.947 18.0334 796.711 17.9045C796.474 17.7685 796.195 17.7004 795.873 17.7004C795.436 17.7004 795.106 17.7935 794.884 17.9797C794.669 18.1588 794.487 18.3521 794.336 18.5598Z" fill="#E2DCCF"/>
<path d="M755.536 59.4436H756.997C757.376 59.4436 757.688 59.3577 757.931 59.1858C758.175 59.0068 758.354 58.7561 758.468 58.4338C758.583 58.1116 758.64 57.7356 758.64 57.3059C758.64 56.9049 758.586 56.554 758.479 56.2532C758.372 55.9524 758.207 55.7161 757.985 55.5442C757.763 55.3723 757.484 55.2864 757.147 55.2864C756.889 55.2864 756.649 55.358 756.427 55.5012C756.205 55.6444 756.026 55.8486 755.89 56.1135C755.761 56.3713 755.697 56.6829 755.697 57.0481H752.668C752.668 56.1887 752.864 55.4403 753.258 54.803C753.652 54.1656 754.182 53.6679 754.848 53.3098C755.514 52.9517 756.252 52.7727 757.061 52.7727C757.971 52.7727 758.769 52.9446 759.457 53.2883C760.144 53.6249 760.681 54.1262 761.068 54.7922C761.455 55.4511 761.648 56.2675 761.648 57.2415C761.648 57.7428 761.551 58.2262 761.358 58.6917C761.172 59.1571 760.9 59.5761 760.542 59.9485C760.183 60.3137 759.747 60.6038 759.231 60.8186C758.723 61.0334 758.142 61.1409 757.491 61.1409H755.536V59.4436ZM755.536 61.8821V60.2385H757.491C758.221 60.2385 758.859 60.3352 759.403 60.5286C759.954 60.7148 760.409 60.9869 760.767 61.345C761.132 61.703 761.405 62.1292 761.584 62.6233C761.763 63.1174 761.852 63.6617 761.852 64.2561C761.852 64.9866 761.73 65.6383 761.487 66.2112C761.243 66.7841 760.903 67.2675 760.466 67.6614C760.03 68.0553 759.521 68.356 758.941 68.5637C758.361 68.7642 757.731 68.8645 757.05 68.8645C756.485 68.8645 755.93 68.775 755.385 68.5959C754.848 68.4169 754.365 68.1412 753.935 67.7688C753.505 67.3964 753.165 66.9273 752.915 66.3616C752.664 65.7958 752.539 65.1262 752.539 64.3528H755.546C755.546 64.7395 755.614 65.0868 755.751 65.3948C755.887 65.6956 756.073 65.9319 756.309 66.1038C756.553 66.2756 756.825 66.3616 757.126 66.3616C757.476 66.3616 757.781 66.2721 758.039 66.093C758.296 65.914 758.493 65.6633 758.629 65.3411C758.766 65.0188 758.834 64.6428 758.834 64.2131C758.834 63.6617 758.762 63.2177 758.619 62.8811C758.475 62.5374 758.268 62.2867 757.996 62.1292C757.724 61.9644 757.394 61.8821 757.007 61.8821H755.536ZM766.686 61.5598L764.28 60.9583L765.064 53.009H772.616V55.5872H767.535L767.245 58.9495C767.409 58.8349 767.653 58.7096 767.975 58.5735C768.305 58.4374 768.67 58.3694 769.071 58.3694C769.715 58.3694 770.288 58.4875 770.79 58.7239C771.291 58.9602 771.713 59.304 772.057 59.7551C772.401 60.2063 772.662 60.7577 772.841 61.4094C773.02 62.0611 773.11 62.7987 773.11 63.6223C773.11 64.317 773.013 64.9794 772.82 65.6096C772.634 66.2398 772.351 66.7984 771.971 67.2854C771.592 67.7724 771.115 68.1591 770.543 68.4456C769.97 68.7249 769.3 68.8645 768.534 68.8645C767.954 68.8645 767.391 68.7642 766.847 68.5637C766.31 68.3632 765.827 68.066 765.397 67.6721C764.967 67.2711 764.624 66.7913 764.366 66.2327C764.108 65.6669 763.979 65.0224 763.979 64.2991H766.955C766.983 64.7216 767.066 65.0904 767.202 65.4055C767.345 65.7135 767.524 65.9498 767.739 66.1145C767.961 66.2792 768.219 66.3616 768.512 66.3616C768.799 66.3616 769.046 66.29 769.253 66.1467C769.461 65.9963 769.626 65.7887 769.748 65.5237C769.869 65.2587 769.959 64.9508 770.016 64.5999C770.073 64.2418 770.102 63.8586 770.102 63.4504C770.102 63.0351 770.063 62.6591 769.984 62.3225C769.912 61.9859 769.798 61.6995 769.64 61.4631C769.49 61.2196 769.296 61.0334 769.06 60.9045C768.824 60.7685 768.544 60.7004 768.222 60.7004C767.785 60.7004 767.456 60.7935 767.234 60.9797C767.019 61.1588 766.836 61.3521 766.686 61.5598ZM781.929 52.8372H782.327V55.3938H782.187C781.507 55.3938 780.912 55.512 780.404 55.7483C779.903 55.9775 779.484 56.314 779.147 56.7581C778.818 57.1949 778.571 57.7249 778.406 58.3479C778.241 58.9638 778.159 59.6549 778.159 60.4211V63.053C778.159 63.5972 778.195 64.0771 778.266 64.4924C778.345 64.9078 778.456 65.2551 778.599 65.5344C778.75 65.8066 778.921 66.0107 779.115 66.1467C779.315 66.2828 779.534 66.3508 779.77 66.3508C780.014 66.3508 780.236 66.2792 780.436 66.136C780.637 65.9928 780.808 65.7958 780.952 65.5452C781.095 65.2874 781.202 64.9866 781.274 64.6428C781.353 64.2991 781.392 63.9231 781.392 63.5149C781.392 63.0995 781.353 62.72 781.274 62.3762C781.195 62.0325 781.084 61.7353 780.941 61.4846C780.798 61.2268 780.622 61.0299 780.415 60.8938C780.214 60.7506 779.989 60.679 779.738 60.679C779.373 60.679 779.061 60.79 778.803 61.012C778.545 61.2268 778.349 61.5061 778.212 61.8499C778.076 62.1864 778.001 62.5409 777.987 62.9133L777.085 62.2688C777.113 61.7245 777.213 61.2125 777.385 60.7327C777.564 60.2457 777.808 59.8088 778.116 59.4221C778.424 59.0354 778.793 58.7346 779.222 58.5198C779.652 58.2978 780.135 58.1868 780.672 58.1868C781.295 58.1868 781.84 58.3264 782.305 58.6057C782.771 58.885 783.157 59.2681 783.465 59.7551C783.78 60.2421 784.013 60.8079 784.164 61.4524C784.321 62.0898 784.4 62.7701 784.4 63.4934C784.4 64.2525 784.293 64.9579 784.078 65.6096C783.863 66.2613 783.558 66.8306 783.165 67.3176C782.771 67.8046 782.291 68.1842 781.725 68.4563C781.167 68.7284 780.536 68.8645 779.835 68.8645C779.118 68.8645 778.47 68.7141 777.89 68.4133C777.317 68.1125 776.823 67.6864 776.408 67.135C776 66.5764 775.688 65.9176 775.473 65.1584C775.258 64.3993 775.151 63.5614 775.151 62.6448V61.4309C775.151 60.1705 775.298 59.0175 775.591 57.9719C775.885 56.9192 776.318 56.0097 776.891 55.2434C777.471 54.4771 778.18 53.8863 779.018 53.4709C779.863 53.0484 780.834 52.8372 781.929 52.8372Z" fill="#E2DCCF"/>
<path d="M759.5 95.9768V111.65H756.492V99.6721L753.505 100.822V98.3079L759.177 95.9768H759.5ZM766.665 102.444H768.126C768.505 102.444 768.817 102.358 769.06 102.186C769.304 102.007 769.483 101.756 769.597 101.434C769.712 101.112 769.769 100.736 769.769 100.306C769.769 99.9049 769.715 99.554 769.608 99.2532C769.501 98.9524 769.336 98.7161 769.114 98.5442C768.892 98.3723 768.613 98.2864 768.276 98.2864C768.018 98.2864 767.778 98.358 767.556 98.5012C767.334 98.6444 767.155 98.8486 767.019 99.1135C766.89 99.3713 766.826 99.6829 766.826 100.048H763.796C763.796 99.1887 763.993 98.4403 764.387 97.803C764.781 97.1656 765.311 96.6679 765.977 96.3098C766.643 95.9517 767.381 95.7727 768.19 95.7727C769.1 95.7727 769.898 95.9446 770.586 96.2883C771.273 96.6249 771.81 97.1262 772.197 97.7922C772.584 98.4511 772.777 99.2675 772.777 100.241C772.777 100.743 772.68 101.226 772.487 101.692C772.301 102.157 772.029 102.576 771.67 102.948C771.312 103.314 770.876 103.604 770.36 103.819C769.851 104.033 769.271 104.141 768.62 104.141H766.665V102.444ZM766.665 104.882V103.239H768.62C769.35 103.239 769.988 103.335 770.532 103.529C771.083 103.715 771.538 103.987 771.896 104.345C772.261 104.703 772.533 105.129 772.712 105.623C772.891 106.117 772.981 106.662 772.981 107.256C772.981 107.987 772.859 108.638 772.616 109.211C772.372 109.784 772.032 110.267 771.595 110.661C771.158 111.055 770.65 111.356 770.07 111.564C769.49 111.764 768.86 111.865 768.179 111.865C767.614 111.865 767.058 111.775 766.514 111.596C765.977 111.417 765.494 111.141 765.064 110.769C764.634 110.396 764.294 109.927 764.044 109.362C763.793 108.796 763.668 108.126 763.668 107.353H766.675C766.675 107.74 766.743 108.087 766.879 108.395C767.016 108.696 767.202 108.932 767.438 109.104C767.682 109.276 767.954 109.362 768.254 109.362C768.605 109.362 768.91 109.272 769.168 109.093C769.425 108.914 769.622 108.663 769.758 108.341C769.894 108.019 769.962 107.643 769.962 107.213C769.962 106.662 769.891 106.218 769.748 105.881C769.604 105.537 769.397 105.287 769.125 105.129C768.852 104.964 768.523 104.882 768.136 104.882H766.665ZM784.164 102.454V105.172C784.164 106.347 784.053 107.356 783.831 108.201C783.609 109.046 783.297 109.741 782.896 110.285C782.495 110.823 782.019 111.22 781.467 111.478C780.916 111.736 780.307 111.865 779.641 111.865C779.111 111.865 778.614 111.782 778.148 111.617C777.683 111.453 777.26 111.202 776.88 110.865C776.508 110.522 776.186 110.088 775.914 109.566C775.649 109.036 775.445 108.409 775.301 107.686C775.158 106.955 775.086 106.117 775.086 105.172V102.454C775.086 101.28 775.197 100.274 775.419 99.4358C775.649 98.5907 775.964 97.8997 776.365 97.3625C776.766 96.8254 777.242 96.4316 777.794 96.1809C778.352 95.9231 778.964 95.7942 779.63 95.7942C780.153 95.7942 780.647 95.8765 781.113 96.0413C781.586 96.1988 782.004 96.4459 782.37 96.7825C782.742 97.1191 783.061 97.5523 783.326 98.0823C783.598 98.6051 783.806 99.2317 783.949 99.9622C784.092 100.685 784.164 101.516 784.164 102.454ZM781.145 105.591V102.014C781.145 101.462 781.12 100.979 781.07 100.564C781.027 100.148 780.966 99.7974 780.887 99.511C780.808 99.2245 780.705 98.9918 780.576 98.8127C780.447 98.6337 780.304 98.5048 780.146 98.426C779.989 98.3401 779.813 98.2971 779.62 98.2971C779.391 98.2971 779.183 98.3616 778.997 98.4905C778.81 98.6194 778.649 98.8306 778.513 99.1243C778.377 99.4107 778.273 99.7939 778.202 100.274C778.137 100.746 778.105 101.326 778.105 102.014V105.591C778.105 106.142 778.127 106.629 778.169 107.052C778.22 107.475 778.288 107.836 778.374 108.137C778.467 108.431 778.571 108.667 778.685 108.846C778.807 109.025 778.947 109.157 779.104 109.243C779.269 109.322 779.448 109.362 779.641 109.362C779.87 109.362 780.078 109.297 780.264 109.168C780.458 109.032 780.619 108.817 780.748 108.524C780.877 108.23 780.973 107.843 781.038 107.364C781.109 106.877 781.145 106.286 781.145 105.591Z" fill="#E2DCCF"/>
<path d="M754.773 152.211H754.923C755.611 152.211 756.198 152.111 756.685 151.91C757.179 151.71 757.58 151.416 757.888 151.03C758.203 150.636 758.433 150.152 758.576 149.579C758.719 149.006 758.791 148.355 758.791 147.624V144.606C758.791 144.047 758.751 143.564 758.672 143.156C758.594 142.74 758.483 142.396 758.339 142.124C758.196 141.845 758.035 141.637 757.856 141.501C757.677 141.365 757.484 141.297 757.276 141.297C757.032 141.297 756.818 141.379 756.631 141.544C756.445 141.709 756.288 141.934 756.159 142.221C756.037 142.5 755.944 142.819 755.879 143.177C755.815 143.535 755.783 143.904 755.783 144.283C755.783 144.684 755.815 145.06 755.879 145.411C755.944 145.762 756.041 146.074 756.169 146.346C756.298 146.618 756.463 146.829 756.664 146.98C756.864 147.13 757.104 147.205 757.383 147.205C757.613 147.205 757.824 147.141 758.017 147.012C758.211 146.876 758.379 146.697 758.522 146.475C758.665 146.253 758.78 146.009 758.866 145.744C758.952 145.479 758.998 145.207 759.005 144.928L759.983 145.54C759.983 146.027 759.893 146.511 759.714 146.99C759.543 147.47 759.303 147.907 758.995 148.301C758.687 148.695 758.329 149.01 757.92 149.246C757.519 149.476 757.086 149.59 756.621 149.59C755.998 149.59 755.446 149.458 754.966 149.193C754.487 148.928 754.082 148.559 753.753 148.086C753.43 147.606 753.187 147.048 753.022 146.41C752.857 145.766 752.775 145.071 752.775 144.326C752.775 143.567 752.879 142.855 753.086 142.189C753.301 141.516 753.606 140.925 754 140.416C754.393 139.908 754.87 139.51 755.428 139.224C755.987 138.93 756.61 138.783 757.297 138.783C757.978 138.783 758.594 138.934 759.145 139.235C759.697 139.535 760.169 139.969 760.563 140.534C760.957 141.093 761.258 141.766 761.465 142.554C761.68 143.335 761.788 144.208 761.788 145.175V146.26C761.788 147.284 761.698 148.237 761.519 149.117C761.34 149.991 761.068 150.779 760.703 151.481C760.337 152.183 759.883 152.784 759.338 153.285C758.794 153.78 758.157 154.159 757.426 154.424C756.703 154.682 755.883 154.811 754.966 154.811H754.773V152.211ZM773.035 145.454V148.172C773.035 149.347 772.924 150.356 772.702 151.201C772.48 152.046 772.168 152.741 771.767 153.285C771.366 153.823 770.89 154.22 770.338 154.478C769.787 154.736 769.178 154.865 768.512 154.865C767.982 154.865 767.485 154.782 767.019 154.617C766.554 154.453 766.131 154.202 765.752 153.865C765.379 153.522 765.057 153.088 764.785 152.566C764.52 152.036 764.316 151.409 764.172 150.686C764.029 149.955 763.958 149.117 763.958 148.172V145.454C763.958 144.28 764.069 143.274 764.291 142.436C764.52 141.591 764.835 140.9 765.236 140.363C765.637 139.825 766.113 139.432 766.665 139.181C767.223 138.923 767.836 138.794 768.502 138.794C769.024 138.794 769.518 138.877 769.984 139.041C770.457 139.199 770.876 139.446 771.241 139.782C771.613 140.119 771.932 140.552 772.197 141.082C772.469 141.605 772.677 142.232 772.82 142.962C772.963 143.685 773.035 144.516 773.035 145.454ZM770.016 148.591V145.014C770.016 144.462 769.991 143.979 769.941 143.564C769.898 143.148 769.837 142.797 769.758 142.511C769.68 142.225 769.576 141.992 769.447 141.813C769.318 141.634 769.175 141.505 769.017 141.426C768.86 141.34 768.684 141.297 768.491 141.297C768.262 141.297 768.054 141.362 767.868 141.49C767.682 141.619 767.52 141.831 767.384 142.124C767.248 142.411 767.144 142.794 767.073 143.274C767.008 143.746 766.976 144.326 766.976 145.014V148.591C766.976 149.142 766.998 149.629 767.041 150.052C767.091 150.475 767.159 150.836 767.245 151.137C767.338 151.431 767.442 151.667 767.556 151.846C767.678 152.025 767.818 152.157 767.975 152.243C768.14 152.322 768.319 152.362 768.512 152.362C768.741 152.362 768.949 152.297 769.135 152.168C769.329 152.032 769.49 151.817 769.619 151.524C769.748 151.23 769.844 150.843 769.909 150.364C769.98 149.877 770.016 149.286 770.016 148.591Z" fill="#E2DCCF"/>
<path d="M755.536 188.444H756.997C757.376 188.444 757.688 188.358 757.931 188.186C758.175 188.007 758.354 187.756 758.468 187.434C758.583 187.112 758.64 186.736 758.64 186.306C758.64 185.905 758.586 185.554 758.479 185.253C758.372 184.952 758.207 184.716 757.985 184.544C757.763 184.372 757.484 184.286 757.147 184.286C756.889 184.286 756.649 184.358 756.427 184.501C756.205 184.644 756.026 184.849 755.89 185.114C755.761 185.371 755.697 185.683 755.697 186.048H752.668C752.668 185.189 752.864 184.44 753.258 183.803C753.652 183.166 754.182 182.668 754.848 182.31C755.514 181.952 756.252 181.773 757.061 181.773C757.971 181.773 758.769 181.945 759.457 182.288C760.144 182.625 760.681 183.126 761.068 183.792C761.455 184.451 761.648 185.267 761.648 186.241C761.648 186.743 761.551 187.226 761.358 187.692C761.172 188.157 760.9 188.576 760.542 188.948C760.183 189.314 759.747 189.604 759.231 189.819C758.723 190.033 758.142 190.141 757.491 190.141H755.536V188.444ZM755.536 190.882V189.239H757.491C758.221 189.239 758.859 189.335 759.403 189.529C759.954 189.715 760.409 189.987 760.767 190.345C761.132 190.703 761.405 191.129 761.584 191.623C761.763 192.117 761.852 192.662 761.852 193.256C761.852 193.987 761.73 194.638 761.487 195.211C761.243 195.784 760.903 196.267 760.466 196.661C760.03 197.055 759.521 197.356 758.941 197.564C758.361 197.764 757.731 197.865 757.05 197.865C756.485 197.865 755.93 197.775 755.385 197.596C754.848 197.417 754.365 197.141 753.935 196.769C753.505 196.396 753.165 195.927 752.915 195.362C752.664 194.796 752.539 194.126 752.539 193.353H755.546C755.546 193.74 755.614 194.087 755.751 194.395C755.887 194.696 756.073 194.932 756.309 195.104C756.553 195.276 756.825 195.362 757.126 195.362C757.476 195.362 757.781 195.272 758.039 195.093C758.296 194.914 758.493 194.663 758.629 194.341C758.766 194.019 758.834 193.643 758.834 193.213C758.834 192.662 758.762 192.218 758.619 191.881C758.475 191.537 758.268 191.287 757.996 191.129C757.724 190.964 757.394 190.882 757.007 190.882H755.536ZM766.665 188.444H768.126C768.505 188.444 768.817 188.358 769.06 188.186C769.304 188.007 769.483 187.756 769.597 187.434C769.712 187.112 769.769 186.736 769.769 186.306C769.769 185.905 769.715 185.554 769.608 185.253C769.501 184.952 769.336 184.716 769.114 184.544C768.892 184.372 768.613 184.286 768.276 184.286C768.018 184.286 767.778 184.358 767.556 184.501C767.334 184.644 767.155 184.849 767.019 185.114C766.89 185.371 766.826 185.683 766.826 186.048H763.796C763.796 185.189 763.993 184.44 764.387 183.803C764.781 183.166 765.311 182.668 765.977 182.31C766.643 181.952 767.381 181.773 768.19 181.773C769.1 181.773 769.898 181.945 770.586 182.288C771.273 182.625 771.81 183.126 772.197 183.792C772.584 184.451 772.777 185.267 772.777 186.241C772.777 186.743 772.68 187.226 772.487 187.692C772.301 188.157 772.029 188.576 771.67 188.948C771.312 189.314 770.876 189.604 770.36 189.819C769.851 190.033 769.271 190.141 768.62 190.141H766.665V188.444ZM766.665 190.882V189.239H768.62C769.35 189.239 769.988 189.335 770.532 189.529C771.083 189.715 771.538 189.987 771.896 190.345C772.261 190.703 772.533 191.129 772.712 191.623C772.891 192.117 772.981 192.662 772.981 193.256C772.981 193.987 772.859 194.638 772.616 195.211C772.372 195.784 772.032 196.267 771.595 196.661C771.158 197.055 770.65 197.356 770.07 197.564C769.49 197.764 768.86 197.865 768.179 197.865C767.614 197.865 767.058 197.775 766.514 197.596C765.977 197.417 765.494 197.141 765.064 196.769C764.634 196.396 764.294 195.927 764.044 195.362C763.793 194.796 763.668 194.126 763.668 193.353H766.675C766.675 193.74 766.743 194.087 766.879 194.395C767.016 194.696 767.202 194.932 767.438 195.104C767.682 195.276 767.954 195.362 768.254 195.362C768.605 195.362 768.91 195.272 769.168 195.093C769.425 194.914 769.622 194.663 769.758 194.341C769.894 194.019 769.962 193.643 769.962 193.213C769.962 192.662 769.891 192.218 769.748 191.881C769.604 191.537 769.397 191.287 769.125 191.129C768.852 190.964 768.523 190.882 768.136 190.882H766.665Z" fill="#E2DCCF"/>
</svg>
