<svg width="31" height="36" viewBox="0 0 31 36" fill="none" xmlns="http://www.w3.org/2000/svg">
<path fill-rule="evenodd" clip-rule="evenodd" d="M24.3901 14.0112C24.3901 19.7582 19.7312 24.4172 13.9842 24.4172C8.2371 24.4172 3.57819 19.7582 3.57819 14.0112C3.57819 8.26413 8.2371 3.60522 13.9842 3.60522C19.7312 3.60522 24.3901 8.26413 24.3901 14.0112ZM20.8686 25.5168C18.8563 26.7235 16.5012 27.4172 13.9842 27.4172C6.58024 27.4172 0.578186 21.4151 0.578186 14.0112C0.578186 6.60728 6.58024 0.605225 13.9842 0.605225C21.3881 0.605225 27.3901 6.60728 27.3901 14.0112C27.3901 17.8188 25.8027 21.2556 23.2537 23.6961L30.5653 32.8793C31.0813 33.5274 30.9742 34.4711 30.3261 34.9871C29.678 35.5031 28.7344 35.3961 28.2183 34.748L20.8686 25.5168Z" fill="#E2DCCF"/>
</svg>
