<svg width="31" height="30" viewBox="0 0 31 30" fill="none" xmlns="http://www.w3.org/2000/svg">
<path d="M20.9974 9.50255C20.8597 9.36367 20.6958 9.25343 20.5152 9.1782C20.3347 9.10297 20.141 9.06424 19.9454 9.06424C19.7498 9.06424 19.5561 9.10297 19.3755 9.1782C19.1949 9.25343 19.0311 9.36367 18.8933 9.50255L15.5 12.9107L12.1067 9.50255C11.8277 9.22353 11.4492 9.06677 11.0546 9.06677C10.66 9.06677 10.2816 9.22353 10.0026 9.50255C9.72353 9.78158 9.56677 10.16 9.56677 10.5546C9.56677 10.9492 9.72353 11.3277 10.0026 11.6067L13.4107 15L10.0026 18.3933C9.86367 18.5311 9.75343 18.6949 9.6782 18.8755C9.60297 19.0561 9.56424 19.2498 9.56424 19.4454C9.56424 19.641 9.60297 19.8347 9.6782 20.0152C9.75343 20.1958 9.86367 20.3597 10.0026 20.4974C10.1403 20.6363 10.3042 20.7466 10.4848 20.8218C10.6653 20.897 10.859 20.9358 11.0546 20.9358C11.2502 20.9358 11.4439 20.897 11.6245 20.8218C11.8051 20.7466 11.9689 20.6363 12.1067 20.4974L15.5 17.0893L18.8933 20.4974C19.0311 20.6363 19.1949 20.7466 19.3755 20.8218C19.5561 20.897 19.7498 20.9358 19.9454 20.9358C20.141 20.9358 20.3347 20.897 20.5152 20.8218C20.6958 20.7466 20.8597 20.6363 20.9974 20.4974C21.1363 20.3597 21.2466 20.1958 21.3218 20.0152C21.397 19.8347 21.4358 19.641 21.4358 19.4454C21.4358 19.2498 21.397 19.0561 21.3218 18.8755C21.2466 18.6949 21.1363 18.5311 20.9974 18.3933L17.5893 15L20.9974 11.6067C21.1363 11.4689 21.2466 11.3051 21.3218 11.1245C21.397 10.9439 21.4358 10.7502 21.4358 10.5546C21.4358 10.359 21.397 10.1653 21.3218 9.98476C21.2466 9.80419 21.1363 9.6403 20.9974 9.50255ZM25.9763 4.52373C24.6094 3.10847 22.9743 1.97961 21.1664 1.20302C19.3586 0.426427 17.4142 0.0176566 15.4467 0.000559476C13.4792 -0.0165377 11.5279 0.358381 9.70688 1.10344C7.88581 1.8485 6.23136 2.94877 4.84007 4.34007C3.44877 5.73136 2.3485 7.38581 1.60344 9.20688C0.858381 11.0279 0.483462 12.9792 0.500559 14.9467C0.517657 16.9142 0.926427 18.8586 1.70302 20.6664C2.47961 22.4743 3.60847 24.1094 5.02373 25.4763C6.39064 26.8915 8.02572 28.0204 9.83356 28.797C11.6414 29.5736 13.5858 29.9823 15.5533 29.9994C17.5208 30.0165 19.4721 29.6416 21.2931 28.8966C23.1142 28.1515 24.7686 27.0512 26.1599 25.6599C27.5512 24.2686 28.6515 22.6142 29.3966 20.7931C30.1416 18.9721 30.5165 17.0208 30.4994 15.0533C30.4823 13.0858 30.0736 11.1414 29.297 9.33356C28.5204 7.52572 27.3915 5.89064 25.9763 4.52373ZM23.8869 23.3869C21.9488 25.3272 19.3979 26.5355 16.6688 26.8059C13.9397 27.0763 11.2013 26.3921 8.92014 24.8699C6.63894 23.3477 4.9561 21.0816 4.15833 18.4577C3.36055 15.8339 3.4972 13.0146 4.54499 10.4802C5.59278 7.94582 7.48688 5.85312 9.90459 4.55865C12.3223 3.26418 15.1141 2.84802 17.8042 3.38109C20.4943 3.91415 22.9164 5.36345 24.6578 7.48207C26.3992 9.60069 27.3522 12.2576 27.3543 15C27.3596 16.5578 27.0559 18.1012 26.4607 19.5408C25.8655 20.9804 24.9907 22.2877 23.8869 23.3869Z" fill="#EEEDEA"/>
</svg>
