<svg width="211" height="163" viewBox="0 0 211 163" fill="none" xmlns="http://www.w3.org/2000/svg">
<path d="M3.7973 13.9841L1.93793 13.5192L2.54388 7.37665H8.37933V9.36884H4.45306L4.22894 11.967C4.35622 11.8784 4.54437 11.7816 4.7934 11.6765C5.04795 11.5713 5.33018 11.5187 5.64008 11.5187C6.13812 11.5187 6.58083 11.61 6.9682 11.7927C7.35557 11.9753 7.68207 12.2409 7.94769 12.5895C8.21332 12.9382 8.4153 13.3643 8.55365 13.8679C8.692 14.3714 8.76117 14.9414 8.76117 15.5778C8.76117 16.1146 8.68646 16.6265 8.53705 17.1135C8.39317 17.6004 8.17458 18.0321 7.88129 18.4084C7.58799 18.7847 7.21999 19.0835 6.77728 19.3049C6.33457 19.5207 5.81716 19.6286 5.22504 19.6286C4.77679 19.6286 4.34239 19.5511 3.92181 19.3962C3.50677 19.2412 3.13324 19.0116 2.80121 18.7072C2.46918 18.3973 2.20355 18.0266 2.00433 17.5949C1.80511 17.1577 1.70551 16.6597 1.70551 16.1008H4.00482C4.02696 16.4273 4.0906 16.7123 4.19574 16.9557C4.30642 17.1937 4.44476 17.3763 4.61078 17.5036C4.78233 17.6309 4.98155 17.6945 5.20844 17.6945C5.42979 17.6945 5.62071 17.6392 5.78119 17.5285C5.94167 17.4123 6.06895 17.2518 6.16302 17.0471C6.2571 16.8423 6.32627 16.6043 6.37054 16.3332C6.41482 16.0565 6.43695 15.7604 6.43695 15.445C6.43695 15.124 6.40651 14.8335 6.34564 14.5734C6.2903 14.3133 6.20176 14.092 6.08002 13.9094C5.96381 13.7212 5.81439 13.5773 5.63177 13.4777C5.44916 13.3726 5.23334 13.32 4.98431 13.32C4.64675 13.32 4.39219 13.3919 4.22064 13.5358C4.05463 13.6742 3.91351 13.8236 3.7973 13.9841Z" fill="#E2DCCF"/>
<path d="M8.91058 48.9138V50.8478H1.53119L1.42328 49.3288L5.53217 41.3766H7.37494L5.49066 44.9128L3.69769 48.9138H8.91058ZM7.88129 41.3766V53.4626H5.54877V41.3766H7.88129Z" fill="#E2DCCF"/>
<path d="M3.7807 80.3488H4.90961C5.2029 80.3488 5.44362 80.2824 5.63177 80.1496C5.81993 80.0113 5.95827 79.8176 6.04681 79.5685C6.13536 79.3195 6.17963 79.029 6.17963 78.697C6.17963 78.3871 6.13812 78.1159 6.05511 77.8835C5.97211 77.6511 5.84483 77.4684 5.67328 77.3356C5.50173 77.2028 5.28591 77.1364 5.02582 77.1364C4.8266 77.1364 4.64122 77.1918 4.46967 77.3024C4.29812 77.4131 4.15977 77.5708 4.05463 77.7756C3.95502 77.9748 3.90521 78.2155 3.90521 78.4977H1.56439C1.56439 77.8337 1.71657 77.2554 2.02094 76.7629C2.3253 76.2704 2.7348 75.8858 3.24945 75.6091C3.7641 75.3324 4.33409 75.194 4.95941 75.194C5.66221 75.194 6.27924 75.3268 6.81049 75.5925C7.34174 75.8526 7.75677 76.2399 8.0556 76.7546C8.35443 77.2637 8.50385 77.8946 8.50385 78.6472C8.50385 79.0345 8.42914 79.4081 8.27972 79.7678C8.13584 80.1275 7.92556 80.4512 7.64886 80.739C7.37217 81.0212 7.03461 81.2453 6.63617 81.4113C6.24327 81.5773 5.79502 81.6603 5.29144 81.6603H3.7807V80.3488ZM3.7807 82.2331V80.9631H5.29144C5.8559 80.9631 6.34841 81.0378 6.76898 81.1872C7.19509 81.3311 7.54649 81.5414 7.82318 81.8181C8.10541 82.0947 8.31569 82.424 8.45404 82.8058C8.59239 83.1877 8.66156 83.6083 8.66156 84.0676C8.66156 84.632 8.56748 85.1356 8.37933 85.5783C8.19118 86.021 7.92832 86.3946 7.59076 86.6989C7.25319 87.0033 6.86029 87.2357 6.41205 87.3962C5.96381 87.5511 5.47683 87.6286 4.95111 87.6286C4.51394 87.6286 4.08506 87.5594 3.66449 87.4211C3.24945 87.2827 2.87592 87.0697 2.54388 86.7819C2.21185 86.4942 1.94899 86.1317 1.75531 85.6945C1.56163 85.2573 1.46478 84.7399 1.46478 84.1423H3.789C3.789 84.4411 3.84157 84.7095 3.94672 84.9474C4.05186 85.1799 4.19574 85.3625 4.37836 85.4953C4.56651 85.6281 4.77679 85.6945 5.00922 85.6945C5.28038 85.6945 5.51556 85.6253 5.71478 85.487C5.914 85.3487 6.06618 85.155 6.17133 84.9059C6.27647 84.6569 6.32904 84.3664 6.32904 84.0344C6.32904 83.6083 6.2737 83.2652 6.16302 83.0051C6.05235 82.7394 5.89187 82.5458 5.68158 82.424C5.47129 82.2967 5.21674 82.2331 4.91791 82.2331H3.7807Z" fill="#E2DCCF"/>
<path d="M8.81097 119.529V121.463H1.6889V119.811L4.95941 115.652C5.27484 115.215 5.5211 114.833 5.69818 114.507C5.87526 114.175 6.00254 113.878 6.08002 113.618C6.15749 113.353 6.19623 113.104 6.19623 112.871C6.19623 112.512 6.15472 112.205 6.07172 111.95C5.98871 111.69 5.8642 111.491 5.69818 111.352C5.5377 111.208 5.33848 111.136 5.10052 111.136C4.81276 111.136 4.57481 111.225 4.38666 111.402C4.19851 111.579 4.05739 111.823 3.96332 112.133C3.87478 112.437 3.83051 112.783 3.83051 113.17H1.49799C1.49799 112.445 1.64463 111.781 1.93793 111.178C2.23676 110.575 2.65456 110.096 3.19135 109.742C3.73366 109.382 4.38389 109.202 5.14203 109.202C5.88357 109.202 6.50336 109.341 7.0014 109.617C7.50498 109.894 7.88405 110.29 8.13861 110.804C8.3987 111.314 8.52875 111.922 8.52875 112.631C8.52875 113.035 8.47618 113.427 8.37103 113.809C8.26589 114.186 8.11648 114.562 7.92279 114.938C7.72911 115.309 7.49115 115.688 7.20892 116.075C6.9267 116.463 6.6085 116.864 6.25433 117.279L4.67719 119.529H8.81097Z" fill="#E2DCCF"/>
<path d="M6.84369 143.352V155.463H4.51947V146.207L2.21185 147.095V145.153L6.59467 143.352H6.84369Z" fill="#E2DCCF"/>
<path d="M25.059 3.25116L27.9435 10.3835L35.6181 10.9228L29.7261 15.8701L31.5849 23.3357L25.059 19.2609L18.5332 23.3357L20.3919 15.8701L14.5 10.9228L22.1746 10.3835L25.059 3.25116Z" fill="#B88A4A"/>
<path d="M25.059 37.3357L27.9435 44.4681L35.6181 45.0073L29.7261 49.9546L31.5849 57.4203L25.059 53.3455L18.5332 57.4203L20.3919 49.9546L14.5 45.0073L22.1746 44.4681L25.059 37.3357Z" fill="#B88A4A"/>
<path d="M25.059 71.4203L27.9435 78.5527L35.6181 79.0919L29.7261 84.0392L31.5849 91.5048L25.059 87.4301L18.5332 91.5048L20.3919 84.0392L14.5 79.0919L22.1746 78.5527L25.059 71.4203Z" fill="#B88A4A"/>
<path d="M25.059 105.505L27.9435 112.637L35.6181 113.177L29.7261 118.124L31.5849 125.589L25.059 121.515L18.5332 125.589L20.3919 118.124L14.5 113.177L22.1746 112.637L25.059 105.505Z" fill="#B88A4A"/>
<path d="M25.059 139.589L27.9435 146.722L35.6181 147.261L29.7261 152.208L31.5849 159.674L25.059 155.599L18.5332 159.674L20.3919 152.208L14.5 147.261L22.1746 146.722L25.059 139.589Z" fill="#B88A4A"/>
<rect x="40.6181" y="0.300293" width="125" height="24.4649" rx="10" fill="white"/>
<rect x="40.6181" y="0.300293" width="112.075" height="24.4649" rx="10" fill="#B88A4A"/>
<rect x="40.6181" y="34.7652" width="125" height="24.4649" rx="10" fill="white"/>
<rect x="40.6181" y="34.7652" width="90.7812" height="24.4649" rx="10" fill="#B88A4A"/>
<rect x="40.6181" y="69.2301" width="125" height="24.4649" rx="10" fill="white"/>
<rect x="40.6181" y="69.2301" width="79.9217" height="24.4649" rx="10" fill="#B88A4A"/>
<rect x="40.6181" y="103.695" width="125" height="24.4649" rx="10" fill="white"/>
<rect x="40.6181" y="103.695" width="37.9483" height="24.4649" rx="10" fill="#B88A4A"/>
<rect x="40.6181" y="138.16" width="125" height="24.4649" rx="10" fill="white"/>
<rect x="40.6181" y="138.16" width="24.5523" height="24.4649" rx="10" fill="#B88A4A"/>
<path d="M176.561 7.35175V19.4626H174.237V10.2072L171.93 11.0954V9.15302L176.312 7.35175H176.561ZM182.405 17.4206V19.0558C182.405 19.6812 182.25 20.3093 181.94 20.9401C181.63 21.5765 181.238 22.0967 180.762 22.5007L179.517 21.8532C179.655 21.5987 179.79 21.3413 179.923 21.0812C180.056 20.8211 180.167 20.5362 180.255 20.2263C180.344 19.9164 180.388 19.565 180.388 19.1721V17.4206H182.405ZM185.676 17.5783H185.792C186.323 17.5783 186.777 17.5008 187.153 17.3459C187.535 17.1909 187.845 16.9641 188.083 16.6652C188.326 16.3609 188.504 15.9873 188.614 15.5446C188.725 15.1019 188.78 14.5983 188.78 14.0339V11.7014C188.78 11.2697 188.75 10.8962 188.689 10.5807C188.628 10.2598 188.542 9.99416 188.432 9.78387C188.321 9.56805 188.196 9.40757 188.058 9.30243C187.92 9.19729 187.77 9.14471 187.61 9.14471C187.422 9.14471 187.256 9.20835 187.112 9.33563C186.968 9.46291 186.846 9.63723 186.747 9.85858C186.652 10.0744 186.581 10.3207 186.531 10.5974C186.481 10.874 186.456 11.159 186.456 11.4523C186.456 11.7622 186.481 12.0528 186.531 12.3239C186.581 12.5951 186.655 12.8358 186.755 13.0461C186.854 13.2564 186.982 13.4196 187.137 13.5358C187.292 13.652 187.477 13.7101 187.693 13.7101C187.87 13.7101 188.033 13.6603 188.183 13.5607C188.332 13.4556 188.462 13.3172 188.573 13.1457C188.683 12.9741 188.772 12.786 188.838 12.5812C188.905 12.3765 188.941 12.1662 188.946 11.9504L189.702 12.4235C189.702 12.7998 189.632 13.1734 189.494 13.5441C189.361 13.9149 189.176 14.2525 188.938 14.5568C188.7 14.8612 188.423 15.1047 188.108 15.2873C187.798 15.4644 187.463 15.5529 187.103 15.5529C186.622 15.5529 186.196 15.4505 185.825 15.2458C185.454 15.041 185.142 14.756 184.887 14.3908C184.638 14.02 184.45 13.5884 184.323 13.0959C184.195 12.5978 184.132 12.0611 184.132 11.4855C184.132 10.8989 184.212 10.3483 184.372 9.83368C184.539 9.3135 184.774 8.85695 185.078 8.46405C185.382 8.07115 185.75 7.76402 186.182 7.54266C186.614 7.31578 187.095 7.20233 187.626 7.20233C188.152 7.20233 188.628 7.31854 189.054 7.55096C189.48 7.78339 189.845 8.11818 190.15 8.55536C190.454 8.987 190.687 9.50718 190.847 10.1159C191.013 10.7191 191.096 11.3942 191.096 12.1413V12.9797C191.096 13.771 191.027 14.507 190.889 15.1877C190.75 15.8628 190.54 16.4715 190.258 17.0139C189.976 17.5562 189.624 18.021 189.204 18.4084C188.783 18.7902 188.29 19.0835 187.726 19.2883C187.167 19.4875 186.533 19.5871 185.825 19.5871H185.676V17.5783ZM199.746 16.1423C199.746 16.9059 199.596 17.5479 199.297 18.0681C199.004 18.5827 198.595 18.9728 198.069 19.2385C197.549 19.4986 196.956 19.6286 196.292 19.6286C195.628 19.6286 195.033 19.4986 194.508 19.2385C193.982 18.9728 193.567 18.5827 193.263 18.0681C192.958 17.5479 192.806 16.9059 192.806 16.1423C192.806 15.6332 192.892 15.1711 193.063 14.756C193.235 14.341 193.476 13.9868 193.786 13.6935C194.101 13.3947 194.469 13.1678 194.89 13.0129C195.316 12.8524 195.778 12.7722 196.276 12.7722C196.945 12.7722 197.54 12.9133 198.06 13.1955C198.586 13.4722 198.998 13.8623 199.297 14.3659C199.596 14.8695 199.746 15.4616 199.746 16.1423ZM197.413 15.9763C197.413 15.6166 197.366 15.3067 197.272 15.0466C197.183 14.7865 197.053 14.5873 196.882 14.4489C196.716 14.305 196.514 14.2331 196.276 14.2331C196.043 14.2331 195.841 14.305 195.67 14.4489C195.498 14.5873 195.365 14.7865 195.271 15.0466C195.183 15.3067 195.139 15.6166 195.139 15.9763C195.139 16.3304 195.183 16.6348 195.271 16.8893C195.365 17.1439 195.498 17.3431 195.67 17.487C195.841 17.6253 196.049 17.6945 196.292 17.6945C196.53 17.6945 196.732 17.6253 196.898 17.487C197.07 17.3431 197.197 17.1439 197.28 16.8893C197.369 16.6348 197.413 16.3304 197.413 15.9763ZM199.546 10.5891C199.546 11.2088 199.408 11.7539 199.131 12.2243C198.855 12.6947 198.47 13.0627 197.977 13.3283C197.49 13.5939 196.929 13.7267 196.292 13.7267C195.65 13.7267 195.083 13.5939 194.591 13.3283C194.098 13.0627 193.711 12.6947 193.429 12.2243C193.152 11.7484 193.014 11.2033 193.014 10.5891C193.014 9.85858 193.152 9.24156 193.429 8.73798C193.711 8.2344 194.098 7.85256 194.591 7.59247C195.083 7.33238 195.648 7.20233 196.284 7.20233C196.926 7.20233 197.49 7.33238 197.977 7.59247C198.47 7.85256 198.855 8.2344 199.131 8.73798C199.408 9.24156 199.546 9.85858 199.546 10.5891ZM197.222 10.7053C197.222 10.3898 197.186 10.1159 197.114 9.88348C197.048 9.65106 196.945 9.46844 196.807 9.33563C196.669 9.20282 196.494 9.13641 196.284 9.13641C196.085 9.13641 195.913 9.20005 195.769 9.32733C195.631 9.45461 195.526 9.63446 195.454 9.86688C195.382 10.0993 195.346 10.3788 195.346 10.7053C195.346 11.0262 195.379 11.3057 195.446 11.5436C195.518 11.7816 195.626 11.967 195.769 12.0998C195.913 12.2326 196.088 12.299 196.292 12.299C196.503 12.299 196.674 12.2326 196.807 12.0998C196.945 11.9614 197.048 11.7733 197.114 11.5353C197.186 11.2974 197.222 11.0207 197.222 10.7053ZM203.481 13.9841L201.622 13.5192L202.227 7.37665H208.063V9.36884H204.137L203.913 11.967C204.04 11.8784 204.228 11.7816 204.477 11.6765C204.732 11.5713 205.014 11.5187 205.324 11.5187C205.822 11.5187 206.264 11.61 206.652 11.7927C207.039 11.9753 207.366 12.2409 207.631 12.5895C207.897 12.9382 208.099 13.3643 208.237 13.8679C208.376 14.3714 208.445 14.9414 208.445 15.5778C208.445 16.1146 208.37 16.6265 208.221 17.1135C208.077 17.6004 207.858 18.0321 207.565 18.4084C207.272 18.7847 206.904 19.0835 206.461 19.3049C206.018 19.5207 205.501 19.6286 204.909 19.6286C204.46 19.6286 204.026 19.5511 203.605 19.3962C203.19 19.2412 202.817 19.0116 202.485 18.7072C202.153 18.3973 201.887 18.0266 201.688 17.5949C201.489 17.1577 201.389 16.6597 201.389 16.1008H203.688C203.711 16.4273 203.774 16.7123 203.879 16.9557C203.99 17.1937 204.128 17.3763 204.294 17.5036C204.466 17.6309 204.665 17.6945 204.892 17.6945C205.113 17.6945 205.304 17.6392 205.465 17.5285C205.625 17.4123 205.753 17.2518 205.847 17.0471C205.941 16.8423 206.01 16.6043 206.054 16.3332C206.098 16.0565 206.121 15.7604 206.121 15.445C206.121 15.124 206.09 14.8335 206.029 14.5734C205.974 14.3133 205.885 14.092 205.764 13.9094C205.647 13.7212 205.498 13.5773 205.315 13.4777C205.133 13.3726 204.917 13.32 204.668 13.32C204.33 13.32 204.076 13.3919 203.904 13.5358C203.738 13.6742 203.597 13.8236 203.481 13.9841Z" fill="#E2DCCF"/>
<path d="M173.498 46.3488H174.627C174.921 46.3488 175.161 46.2824 175.35 46.1496C175.538 46.0113 175.676 45.8176 175.765 45.5685C175.853 45.3195 175.897 45.029 175.897 44.697C175.897 44.3871 175.856 44.1159 175.773 43.8835C175.69 43.6511 175.563 43.4684 175.391 43.3356C175.22 43.2028 175.004 43.1364 174.744 43.1364C174.544 43.1364 174.359 43.1918 174.187 43.3024C174.016 43.4131 173.878 43.5708 173.772 43.7756C173.673 43.9748 173.623 44.2155 173.623 44.4977H171.282C171.282 43.8337 171.434 43.2554 171.739 42.7629C172.043 42.2704 172.453 41.8858 172.967 41.6091C173.482 41.3324 174.052 41.194 174.677 41.194C175.38 41.194 175.997 41.3268 176.528 41.5925C177.06 41.8526 177.475 42.2399 177.773 42.7546C178.072 43.2637 178.222 43.8946 178.222 44.6472C178.222 45.0345 178.147 45.4081 177.997 45.7678C177.854 46.1275 177.643 46.4512 177.367 46.739C177.09 47.0212 176.752 47.2453 176.354 47.4113C175.961 47.5773 175.513 47.6603 175.009 47.6603H173.498V46.3488ZM173.498 48.2331V46.9631H175.009C175.574 46.9631 176.066 47.0378 176.487 47.1872C176.913 47.3311 177.264 47.5414 177.541 47.8181C177.823 48.0947 178.033 48.424 178.172 48.8058C178.31 49.1877 178.379 49.6083 178.379 50.0676C178.379 50.632 178.285 51.1356 178.097 51.5783C177.909 52.021 177.646 52.3946 177.309 52.6989C176.971 53.0033 176.578 53.2357 176.13 53.3962C175.682 53.5511 175.195 53.6286 174.669 53.6286C174.232 53.6286 173.803 53.5594 173.382 53.4211C172.967 53.2827 172.594 53.0697 172.262 52.7819C171.93 52.4942 171.667 52.1317 171.473 51.6945C171.279 51.2573 171.183 50.7399 171.183 50.1423H173.507C173.507 50.4411 173.559 50.7095 173.664 50.9474C173.77 51.1799 173.914 51.3625 174.096 51.4953C174.284 51.6281 174.495 51.6945 174.727 51.6945C174.998 51.6945 175.233 51.6253 175.433 51.487C175.632 51.3487 175.784 51.155 175.889 50.9059C175.994 50.6569 176.047 50.3664 176.047 50.0344C176.047 49.6083 175.991 49.2652 175.881 49.0051C175.77 48.7394 175.61 48.5458 175.399 48.424C175.189 48.2967 174.935 48.2331 174.636 48.2331H173.498ZM182.115 47.9841L180.255 47.5192L180.861 41.3766H186.697V43.3688H182.77L182.546 45.967C182.674 45.8784 182.862 45.7816 183.111 45.6765C183.365 45.5713 183.648 45.5187 183.957 45.5187C184.456 45.5187 184.898 45.61 185.286 45.7927C185.673 45.9753 185.999 46.2409 186.265 46.5895C186.531 46.9382 186.733 47.3643 186.871 47.8679C187.009 48.3714 187.079 48.9414 187.079 49.5778C187.079 50.1146 187.004 50.6265 186.854 51.1135C186.711 51.6004 186.492 52.0321 186.199 52.4084C185.905 52.7847 185.537 53.0835 185.095 53.3049C184.652 53.5207 184.135 53.6286 183.542 53.6286C183.094 53.6286 182.66 53.5511 182.239 53.3962C181.824 53.2412 181.451 53.0116 181.119 52.7072C180.787 52.3973 180.521 52.0266 180.322 51.5949C180.122 51.1577 180.023 50.6597 180.023 50.1008H182.322C182.344 50.4273 182.408 50.7123 182.513 50.9557C182.624 51.1937 182.762 51.3763 182.928 51.5036C183.1 51.6309 183.299 51.6945 183.526 51.6945C183.747 51.6945 183.938 51.6392 184.099 51.5285C184.259 51.4123 184.386 51.2518 184.48 51.0471C184.574 50.8423 184.644 50.6043 184.688 50.3332C184.732 50.0565 184.754 49.7604 184.754 49.445C184.754 49.124 184.724 48.8335 184.663 48.5734C184.608 48.3133 184.519 48.092 184.397 47.9094C184.281 47.7212 184.132 47.5773 183.949 47.4777C183.767 47.3726 183.551 47.32 183.302 47.32C182.964 47.32 182.71 47.3919 182.538 47.5358C182.372 47.6742 182.231 47.8236 182.115 47.9841ZM193.893 41.2438H194.201V43.2194H194.093C193.567 43.2194 193.108 43.3107 192.715 43.4933C192.327 43.6704 192.004 43.9305 191.744 44.2736C191.489 44.6112 191.298 45.0207 191.171 45.5021C191.044 45.978 190.98 46.5121 190.98 47.1042V49.1379C190.98 49.5585 191.008 49.9292 191.063 50.2502C191.124 50.5711 191.21 50.8395 191.32 51.0554C191.436 51.2656 191.569 51.4234 191.719 51.5285C191.874 51.6336 192.042 51.6862 192.225 51.6862C192.413 51.6862 192.585 51.6309 192.74 51.5202C192.895 51.4095 193.027 51.2573 193.138 51.0637C193.249 50.8644 193.332 50.632 193.387 50.3664C193.448 50.1008 193.478 49.8102 193.478 49.4948C193.478 49.1738 193.448 48.8806 193.387 48.6149C193.326 48.3493 193.24 48.1196 193.13 47.926C193.019 47.7267 192.884 47.5746 192.723 47.4694C192.568 47.3587 192.394 47.3034 192.2 47.3034C191.918 47.3034 191.677 47.3892 191.478 47.5607C191.279 47.7267 191.127 47.9426 191.021 48.2082C190.916 48.4683 190.858 48.7422 190.847 49.03L190.15 48.5319C190.172 48.1113 190.249 47.7157 190.382 47.3449C190.521 46.9686 190.709 46.631 190.947 46.3322C191.185 46.0334 191.47 45.801 191.802 45.6349C192.134 45.4634 192.507 45.3776 192.922 45.3776C193.404 45.3776 193.824 45.4855 194.184 45.7014C194.544 45.9172 194.843 46.2132 195.081 46.5895C195.324 46.9658 195.504 47.403 195.62 47.9011C195.742 48.3936 195.803 48.9193 195.803 49.4782C195.803 50.0648 195.72 50.6099 195.554 51.1135C195.388 51.617 195.152 52.057 194.848 52.4333C194.544 52.8096 194.173 53.1029 193.736 53.3132C193.304 53.5235 192.817 53.6286 192.275 53.6286C191.721 53.6286 191.221 53.5124 190.772 53.28C190.33 53.0475 189.948 52.7183 189.627 52.2922C189.311 51.8605 189.071 51.3514 188.905 50.7648C188.739 50.1782 188.656 49.5308 188.656 48.8224V47.8845C188.656 46.9105 188.769 46.0196 188.996 45.2116C189.223 44.3981 189.558 43.6953 190 43.1032C190.449 42.5111 190.997 42.0545 191.644 41.7336C192.297 41.4071 193.047 41.2438 193.893 41.2438Z" fill="#E2DCCF"/>
<path d="M176.561 75.3517V87.4626H174.237V78.2072L171.93 79.0954V77.153L176.312 75.3517H176.561ZM182.098 80.3488H183.227C183.52 80.3488 183.761 80.2824 183.949 80.1496C184.137 80.0113 184.276 79.8176 184.364 79.5685C184.453 79.3195 184.497 79.029 184.497 78.697C184.497 78.3871 184.456 78.1159 184.372 77.8835C184.289 77.6511 184.162 77.4684 183.991 77.3356C183.819 77.2028 183.603 77.1364 183.343 77.1364C183.144 77.1364 182.959 77.1918 182.787 77.3024C182.615 77.4131 182.477 77.5708 182.372 77.7756C182.272 77.9748 182.223 78.2155 182.223 78.4977H179.882C179.882 77.8337 180.034 77.2554 180.338 76.7629C180.643 76.2704 181.052 75.8858 181.567 75.6091C182.081 75.3324 182.651 75.194 183.277 75.194C183.98 75.194 184.597 75.3268 185.128 75.5925C185.659 75.8526 186.074 76.2399 186.373 76.7546C186.672 77.2637 186.821 77.8946 186.821 78.6472C186.821 79.0345 186.747 79.4081 186.597 79.7678C186.453 80.1275 186.243 80.4512 185.966 80.739C185.69 81.0212 185.352 81.2453 184.954 81.4113C184.561 81.5773 184.112 81.6603 183.609 81.6603H182.098V80.3488ZM182.098 82.2331V80.9631H183.609C184.173 80.9631 184.666 81.0378 185.086 81.1872C185.512 81.3311 185.864 81.5414 186.141 81.8181C186.423 82.0947 186.633 82.424 186.771 82.8058C186.91 83.1877 186.979 83.6083 186.979 84.0676C186.979 84.632 186.885 85.1356 186.697 85.5783C186.509 86.021 186.246 86.3946 185.908 86.6989C185.571 87.0033 185.178 87.2357 184.729 87.3962C184.281 87.5511 183.794 87.6286 183.268 87.6286C182.831 87.6286 182.402 87.5594 181.982 87.4211C181.567 87.2827 181.193 87.0697 180.861 86.7819C180.529 86.4942 180.266 86.1317 180.073 85.6945C179.879 85.2573 179.782 84.7399 179.782 84.1423H182.106C182.106 84.4411 182.159 84.7095 182.264 84.9474C182.369 85.1799 182.513 85.3625 182.696 85.4953C182.884 85.6281 183.094 85.6945 183.327 85.6945C183.598 85.6945 183.833 85.6253 184.032 85.487C184.231 85.3487 184.384 85.155 184.489 84.9059C184.594 84.6569 184.646 84.3664 184.646 84.0344C184.646 83.6083 184.591 83.2652 184.48 83.0051C184.37 82.7394 184.209 82.5458 183.999 82.424C183.789 82.2967 183.534 82.2331 183.235 82.2331H182.098ZM195.62 80.3571V82.4572C195.62 83.3648 195.534 84.145 195.363 84.798C195.191 85.451 194.95 85.9878 194.641 86.4084C194.331 86.8234 193.963 87.1306 193.537 87.3298C193.11 87.529 192.64 87.6286 192.125 87.6286C191.716 87.6286 191.331 87.565 190.972 87.4377C190.612 87.3104 190.285 87.1167 189.992 86.8566C189.704 86.591 189.455 86.2562 189.245 85.8522C189.04 85.4427 188.883 84.9585 188.772 84.3996C188.661 83.8351 188.606 83.1877 188.606 82.4572V80.3571C188.606 79.4496 188.692 78.6721 188.863 78.0246C189.04 77.3716 189.284 76.8376 189.594 76.4225C189.904 76.0075 190.272 75.7031 190.698 75.5095C191.129 75.3102 191.602 75.2106 192.117 75.2106C192.521 75.2106 192.903 75.2743 193.263 75.4016C193.628 75.5233 193.952 75.7142 194.234 75.9743C194.522 76.2344 194.768 76.5692 194.973 76.9787C195.183 77.3827 195.343 77.8669 195.454 78.4313C195.565 78.9903 195.62 79.6322 195.62 80.3571ZM193.288 82.7809V80.0168C193.288 79.5907 193.268 79.2171 193.229 78.8962C193.196 78.5752 193.149 78.3041 193.088 78.0827C193.027 77.8613 192.947 77.6815 192.848 77.5432C192.748 77.4048 192.637 77.3052 192.516 77.2443C192.394 77.1779 192.258 77.1447 192.109 77.1447C191.932 77.1447 191.771 77.1945 191.627 77.2941C191.484 77.3937 191.359 77.557 191.254 77.7839C191.149 78.0052 191.068 78.3013 191.013 78.6721C190.963 79.0373 190.938 79.4855 190.938 80.0168V82.7809C190.938 83.2071 190.955 83.5834 190.988 83.9099C191.027 84.2363 191.08 84.5158 191.146 84.7482C191.218 84.9751 191.298 85.1577 191.387 85.2961C191.481 85.4344 191.589 85.5368 191.71 85.6032C191.838 85.6641 191.976 85.6945 192.125 85.6945C192.303 85.6945 192.463 85.6447 192.607 85.5451C192.756 85.44 192.881 85.2739 192.98 85.0471C193.08 84.8202 193.155 84.5213 193.205 84.1506C193.26 83.7743 193.288 83.3177 193.288 82.7809Z" fill="#E2DCCF"/>
<path d="M172.909 119.578H173.025C173.557 119.578 174.01 119.501 174.387 119.346C174.768 119.191 175.078 118.964 175.316 118.665C175.56 118.361 175.737 117.987 175.848 117.545C175.958 117.102 176.014 116.598 176.014 116.034V113.701C176.014 113.27 175.983 112.896 175.922 112.581C175.861 112.26 175.776 111.994 175.665 111.784C175.554 111.568 175.43 111.408 175.291 111.302C175.153 111.197 175.004 111.145 174.843 111.145C174.655 111.145 174.489 111.208 174.345 111.336C174.201 111.463 174.08 111.637 173.98 111.859C173.886 112.074 173.814 112.321 173.764 112.597C173.714 112.874 173.689 113.159 173.689 113.452C173.689 113.762 173.714 114.053 173.764 114.324C173.814 114.595 173.889 114.836 173.988 115.046C174.088 115.256 174.215 115.42 174.37 115.536C174.525 115.652 174.71 115.71 174.926 115.71C175.103 115.71 175.267 115.66 175.416 115.561C175.565 115.456 175.695 115.317 175.806 115.146C175.917 114.974 176.005 114.786 176.072 114.581C176.138 114.377 176.174 114.166 176.18 113.95L176.935 114.424C176.935 114.8 176.866 115.173 176.727 115.544C176.595 115.915 176.409 116.253 176.171 116.557C175.933 116.861 175.657 117.105 175.341 117.287C175.031 117.464 174.697 117.553 174.337 117.553C173.855 117.553 173.429 117.451 173.059 117.246C172.688 117.041 172.375 116.756 172.121 116.391C171.872 116.02 171.683 115.588 171.556 115.096C171.429 114.598 171.365 114.061 171.365 113.486C171.365 112.899 171.445 112.348 171.606 111.834C171.772 111.314 172.007 110.857 172.311 110.464C172.616 110.071 172.984 109.764 173.415 109.543C173.847 109.316 174.329 109.202 174.86 109.202C175.386 109.202 175.861 109.319 176.288 109.551C176.714 109.783 177.079 110.118 177.383 110.555C177.688 110.987 177.92 111.507 178.081 112.116C178.247 112.719 178.33 113.394 178.33 114.141V114.98C178.33 115.771 178.26 116.507 178.122 117.188C177.984 117.863 177.773 118.472 177.491 119.014C177.209 119.556 176.858 120.021 176.437 120.408C176.016 120.79 175.524 121.084 174.959 121.288C174.4 121.488 173.767 121.587 173.059 121.587H172.909V119.578ZM187.02 114.357V116.457C187.02 117.365 186.935 118.145 186.763 118.798C186.592 119.451 186.351 119.988 186.041 120.408C185.731 120.823 185.363 121.131 184.937 121.33C184.511 121.529 184.04 121.629 183.526 121.629C183.116 121.629 182.732 121.565 182.372 121.438C182.012 121.31 181.686 121.117 181.393 120.857C181.105 120.591 180.856 120.256 180.645 119.852C180.441 119.443 180.283 118.959 180.172 118.4C180.062 117.835 180.006 117.188 180.006 116.457V114.357C180.006 113.45 180.092 112.672 180.264 112.025C180.441 111.372 180.684 110.838 180.994 110.423C181.304 110.008 181.672 109.703 182.098 109.51C182.53 109.31 183.003 109.211 183.518 109.211C183.921 109.211 184.303 109.274 184.663 109.402C185.028 109.523 185.352 109.714 185.634 109.974C185.922 110.234 186.168 110.569 186.373 110.979C186.583 111.383 186.744 111.867 186.854 112.431C186.965 112.99 187.02 113.632 187.02 114.357ZM184.688 116.781V114.017C184.688 113.591 184.669 113.217 184.63 112.896C184.597 112.575 184.55 112.304 184.489 112.083C184.428 111.861 184.348 111.682 184.248 111.543C184.148 111.405 184.038 111.305 183.916 111.244C183.794 111.178 183.659 111.145 183.509 111.145C183.332 111.145 183.172 111.195 183.028 111.294C182.884 111.394 182.759 111.557 182.654 111.784C182.549 112.005 182.469 112.301 182.414 112.672C182.364 113.037 182.339 113.486 182.339 114.017V116.781C182.339 117.207 182.355 117.583 182.389 117.91C182.427 118.236 182.48 118.516 182.546 118.748C182.618 118.975 182.699 119.158 182.787 119.296C182.881 119.434 182.989 119.537 183.111 119.603C183.238 119.664 183.376 119.695 183.526 119.695C183.703 119.695 183.863 119.645 184.007 119.545C184.157 119.44 184.281 119.274 184.381 119.047C184.48 118.82 184.555 118.521 184.605 118.151C184.66 117.774 184.688 117.318 184.688 116.781Z" fill="#E2DCCF"/>
<path d="M173.498 148.349H174.627C174.921 148.349 175.161 148.282 175.35 148.15C175.538 148.011 175.676 147.818 175.765 147.569C175.853 147.32 175.897 147.029 175.897 146.697C175.897 146.387 175.856 146.116 175.773 145.884C175.69 145.651 175.563 145.469 175.391 145.336C175.22 145.203 175.004 145.136 174.744 145.136C174.544 145.136 174.359 145.192 174.187 145.302C174.016 145.413 173.878 145.571 173.772 145.776C173.673 145.975 173.623 146.216 173.623 146.498H171.282C171.282 145.834 171.434 145.255 171.739 144.763C172.043 144.27 172.453 143.886 172.967 143.609C173.482 143.332 174.052 143.194 174.677 143.194C175.38 143.194 175.997 143.327 176.528 143.593C177.06 143.853 177.475 144.24 177.773 144.755C178.072 145.264 178.222 145.895 178.222 146.647C178.222 147.035 178.147 147.408 177.997 147.768C177.854 148.128 177.643 148.451 177.367 148.739C177.09 149.021 176.752 149.245 176.354 149.411C175.961 149.577 175.513 149.66 175.009 149.66H173.498V148.349ZM173.498 150.233V148.963H175.009C175.574 148.963 176.066 149.038 176.487 149.187C176.913 149.331 177.264 149.541 177.541 149.818C177.823 150.095 178.033 150.424 178.172 150.806C178.31 151.188 178.379 151.608 178.379 152.068C178.379 152.632 178.285 153.136 178.097 153.578C177.909 154.021 177.646 154.395 177.309 154.699C176.971 155.003 176.578 155.236 176.13 155.396C175.682 155.551 175.195 155.629 174.669 155.629C174.232 155.629 173.803 155.559 173.382 155.421C172.967 155.283 172.594 155.07 172.262 154.782C171.93 154.494 171.667 154.132 171.473 153.695C171.279 153.257 171.183 152.74 171.183 152.142H173.507C173.507 152.441 173.559 152.71 173.664 152.948C173.77 153.18 173.914 153.363 174.096 153.495C174.284 153.628 174.495 153.695 174.727 153.695C174.998 153.695 175.233 153.625 175.433 153.487C175.632 153.349 175.784 153.155 175.889 152.906C175.994 152.657 176.047 152.366 176.047 152.034C176.047 151.608 175.991 151.265 175.881 151.005C175.77 150.74 175.61 150.546 175.399 150.424C175.189 150.297 174.935 150.233 174.636 150.233H173.498ZM182.098 148.349H183.227C183.52 148.349 183.761 148.282 183.949 148.15C184.137 148.011 184.276 147.818 184.364 147.569C184.453 147.32 184.497 147.029 184.497 146.697C184.497 146.387 184.456 146.116 184.372 145.884C184.289 145.651 184.162 145.469 183.991 145.336C183.819 145.203 183.603 145.136 183.343 145.136C183.144 145.136 182.959 145.192 182.787 145.302C182.615 145.413 182.477 145.571 182.372 145.776C182.272 145.975 182.223 146.216 182.223 146.498H179.882C179.882 145.834 180.034 145.255 180.338 144.763C180.643 144.27 181.052 143.886 181.567 143.609C182.081 143.332 182.651 143.194 183.277 143.194C183.98 143.194 184.597 143.327 185.128 143.593C185.659 143.853 186.074 144.24 186.373 144.755C186.672 145.264 186.821 145.895 186.821 146.647C186.821 147.035 186.747 147.408 186.597 147.768C186.453 148.128 186.243 148.451 185.966 148.739C185.69 149.021 185.352 149.245 184.954 149.411C184.561 149.577 184.112 149.66 183.609 149.66H182.098V148.349ZM182.098 150.233V148.963H183.609C184.173 148.963 184.666 149.038 185.086 149.187C185.512 149.331 185.864 149.541 186.141 149.818C186.423 150.095 186.633 150.424 186.771 150.806C186.91 151.188 186.979 151.608 186.979 152.068C186.979 152.632 186.885 153.136 186.697 153.578C186.509 154.021 186.246 154.395 185.908 154.699C185.571 155.003 185.178 155.236 184.729 155.396C184.281 155.551 183.794 155.629 183.268 155.629C182.831 155.629 182.402 155.559 181.982 155.421C181.567 155.283 181.193 155.07 180.861 154.782C180.529 154.494 180.266 154.132 180.073 153.695C179.879 153.257 179.782 152.74 179.782 152.142H182.106C182.106 152.441 182.159 152.71 182.264 152.948C182.369 153.18 182.513 153.363 182.696 153.495C182.884 153.628 183.094 153.695 183.327 153.695C183.598 153.695 183.833 153.625 184.032 153.487C184.231 153.349 184.384 153.155 184.489 152.906C184.594 152.657 184.646 152.366 184.646 152.034C184.646 151.608 184.591 151.265 184.48 151.005C184.37 150.74 184.209 150.546 183.999 150.424C183.789 150.297 183.534 150.233 183.235 150.233H182.098Z" fill="#E2DCCF"/>
</svg>
