<svg width="818" height="53" viewBox="0 0 818 53" fill="none" xmlns="http://www.w3.org/2000/svg">
<path d="M307.083 0.477539L312.951 14.9862L328.563 16.0831L316.577 26.1468L320.358 41.3333L307.083 33.0444L293.808 41.3333L297.59 26.1468L285.604 16.0831L301.216 14.9862L307.083 0.477539Z" fill="#B88A4A"/>
<path d="M358.042 0.477539L363.909 14.9862L379.521 16.0831L367.535 26.1468L371.317 41.3333L358.042 33.0444L344.767 41.3333L348.548 26.1468L336.563 16.0831L352.174 14.9862L358.042 0.477539Z" fill="#B88A4A"/>
<path d="M409 0.477539L414.868 14.9862L430.479 16.0831L418.494 26.1468L422.275 41.3333L409 33.0444L395.725 41.3333L399.506 26.1468L387.521 16.0831L403.133 14.9862L409 0.477539Z" fill="#B88A4A"/>
<path d="M459.958 0.477539L465.826 14.9862L481.438 16.0831L469.452 26.1468L473.233 41.3333L459.958 33.0444L446.684 41.3333L450.465 26.1468L438.479 16.0831L454.091 14.9862L459.958 0.477539Z" fill="#B88A4A"/>
<path d="M510.917 0.477539L516.784 14.9862L532.396 16.0831L520.411 26.1468L524.192 41.3333L510.917 33.0444L497.642 41.3333L501.423 26.1468L489.438 16.0831L505.049 14.9862L510.917 0.477539Z" fill="#E2DCCF"/>
</svg>
