<svg width="122" height="44" viewBox="0 0 122 44" fill="none" xmlns="http://www.w3.org/2000/svg">
<path d="M18.8753 5.82812C19.4326 5.85938 19.8545 5.88281 20.1409 5.89844C20.4326 5.90885 20.667 5.91406 20.8441 5.91406C21.1826 5.91406 21.5133 5.90885 21.8363 5.89844C22.1644 5.88281 22.4899 5.86198 22.8128 5.83594V6.375H22.5706C22.1592 6.375 21.8805 6.51823 21.7347 6.80469C21.5889 7.08594 21.5159 7.73698 21.5159 8.75781V10.3125L21.5394 16.0391C21.831 16.0547 22.1071 16.0677 22.3675 16.0781C22.6331 16.0833 22.8831 16.0859 23.1175 16.0859C24.5133 16.0859 25.4118 15.9583 25.8128 15.7031C26.2191 15.4427 26.542 14.9427 26.7816 14.2031L27.3441 14.375C27.1826 14.8229 27.0394 15.263 26.9144 15.6953C26.7894 16.1276 26.68 16.5625 26.5863 17C25.7217 16.974 24.9248 16.9557 24.1956 16.9453C23.4717 16.9297 22.792 16.9219 22.1566 16.9219C21.7087 16.9219 21.2087 16.9297 20.6566 16.9453C20.1045 16.9557 19.4534 16.974 18.7034 17V16.4922C18.7399 16.4974 18.7738 16.5026 18.805 16.5078C18.8415 16.5078 18.8935 16.5078 18.9613 16.5078C19.6644 16.5026 20.0185 15.5 20.0238 13.5C20.0238 13.0469 20.0264 12.6927 20.0316 12.4375L20.0472 10.3125C20.0472 10.0833 20.0498 9.78906 20.055 9.42969C20.0602 9.07031 20.0628 8.82031 20.0628 8.67969C20.0628 7.72135 19.9847 7.09896 19.8284 6.8125C19.6774 6.52083 19.3805 6.375 18.9378 6.375H18.8753V5.82812ZM30.3519 9.01562C30.3467 9.21354 30.3389 9.49479 30.3284 9.85938C30.2607 11.9531 30.2269 13.4271 30.2269 14.2812V15.1094C30.2269 15.7135 30.2842 16.0938 30.3988 16.25C30.5133 16.4062 30.7373 16.4844 31.0706 16.4844C31.1019 16.4844 31.1435 16.4818 31.1956 16.4766C31.2477 16.4714 31.2868 16.4688 31.3128 16.4688V17C30.8701 16.9688 30.5133 16.9479 30.2425 16.9375C29.9717 16.9271 29.7425 16.9219 29.555 16.9219C29.3883 16.9219 29.1748 16.9271 28.9144 16.9375C28.6592 16.9479 28.2738 16.9688 27.7581 17V16.4531H27.9534C28.5993 16.4531 28.9248 15.8177 28.93 14.5469C28.93 14.3646 28.93 14.2214 28.93 14.1172L28.9613 12.1875C28.9613 12.0469 28.9639 11.8698 28.9691 11.6562C28.9743 11.4427 28.9769 11.2995 28.9769 11.2266C28.9769 10.8047 28.9352 10.526 28.8519 10.3906C28.7738 10.2552 28.6279 10.1875 28.4144 10.1875C28.3727 10.1875 28.3102 10.1927 28.2269 10.2031C28.1488 10.2083 28.0628 10.2161 27.9691 10.2266L27.8909 9.73438C28.3024 9.65625 28.7113 9.55729 29.1175 9.4375C29.529 9.31771 29.9404 9.17708 30.3519 9.01562ZM29.5081 5.33594L30.0628 5.75C30.2087 5.85938 30.3154 5.96875 30.3831 6.07812C30.4508 6.1875 30.4847 6.30208 30.4847 6.42188C30.4847 6.54167 30.456 6.64583 30.3988 6.73438C30.3467 6.81771 30.2451 6.91667 30.0941 7.03125L29.5081 7.47656L28.9613 7.04688C28.8102 6.92708 28.7008 6.81771 28.6331 6.71875C28.5654 6.61458 28.5316 6.50521 28.5316 6.39062C28.5316 6.27604 28.5576 6.17708 28.6097 6.09375C28.6618 6.00521 28.7685 5.90104 28.93 5.78125L29.5081 5.33594ZM39.2816 12.6328H35.4691C35.1722 12.6328 34.8988 12.638 34.6488 12.6484C34.3988 12.6589 34.167 12.6745 33.9534 12.6953V12.9844C33.9534 14.0052 34.1878 14.7943 34.6566 15.3516C35.1305 15.9089 35.7972 16.1875 36.6566 16.1875C37.0368 16.1875 37.4118 16.125 37.7816 16C38.1514 15.8698 38.5446 15.6693 38.9613 15.3984L39.2659 15.8984C38.7295 16.3359 38.193 16.6667 37.6566 16.8906C37.1253 17.1146 36.5993 17.2266 36.0784 17.2266C35.068 17.2266 34.2347 16.8672 33.5784 16.1484C32.9222 15.4245 32.5941 14.4974 32.5941 13.3672C32.5941 12.1641 32.9378 11.1536 33.6253 10.3359C34.3128 9.51823 35.1514 9.10938 36.1409 9.10938C37.0628 9.10938 37.7972 9.41667 38.3441 10.0312C38.8909 10.6458 39.2034 11.513 39.2816 12.6328ZM37.8363 11.8125C37.68 11.1719 37.443 10.6823 37.1253 10.3438C36.8076 10 36.4274 9.82812 35.9847 9.82812C35.4847 9.82812 35.055 10.0286 34.6956 10.4297C34.3415 10.8307 34.1097 11.3724 34.0003 12.0547C35.0316 12.0547 35.8415 12.0365 36.43 12C37.0238 11.9635 37.4925 11.901 37.8363 11.8125ZM40.3441 13.6875C40.4222 13.5052 40.4951 13.3151 40.5628 13.1172C40.6305 12.9141 40.6956 12.6927 40.7581 12.4531C40.8102 12.4583 40.8883 12.4609 40.9925 12.4609C41.7581 12.4766 42.3024 12.4844 42.6253 12.4844C43.1357 12.4844 43.5602 12.4818 43.8988 12.4766C44.2373 12.4714 44.5706 12.4635 44.8988 12.4531C44.8102 12.6823 44.7321 12.901 44.6644 13.1094C44.5967 13.3125 44.5368 13.5052 44.4847 13.6875C44.1722 13.6771 43.8623 13.6693 43.555 13.6641C43.2529 13.6589 42.8857 13.6562 42.4534 13.6562C42.0212 13.6562 41.6435 13.6589 41.3206 13.6641C40.9977 13.6693 40.6722 13.6771 40.3441 13.6875ZM45.9144 5.85156C46.1592 5.8724 46.3962 5.88802 46.6253 5.89844C46.8597 5.90885 47.0889 5.91406 47.3128 5.91406C47.4795 5.91406 47.6748 5.90885 47.8988 5.89844C48.1227 5.88802 48.3649 5.8724 48.6253 5.85156C48.693 6.02344 48.7868 6.20052 48.9066 6.38281C49.0264 6.5651 49.1774 6.76562 49.3597 6.98438L55.805 14.6094C55.7894 13.8177 55.7738 12.7682 55.7581 11.4609C55.7165 8.71615 55.6696 7.23958 55.6175 7.03125C55.555 6.79167 55.443 6.625 55.2816 6.53125C55.1253 6.4375 54.8675 6.39062 54.5081 6.39062H54.2659V5.85156C54.3284 5.85156 54.4222 5.85417 54.5472 5.85938C55.2868 5.89583 55.8076 5.91406 56.1097 5.91406C56.417 5.91406 56.9534 5.89583 57.7191 5.85938C57.8284 5.85417 57.9118 5.85156 57.9691 5.85156L57.9613 6.39062C57.93 6.38542 57.8962 6.38281 57.8597 6.38281C57.8232 6.3776 57.7738 6.375 57.7113 6.375C57.0133 6.375 56.6592 7.34635 56.6488 9.28906C56.6435 9.77865 56.6409 10.1615 56.6409 10.4375L56.6097 12.5156C56.5993 12.8229 56.5915 13.1406 56.5863 13.4688C56.5863 13.7917 56.5863 14.237 56.5863 14.8047C56.5863 15.4349 56.5941 15.9271 56.6097 16.2812C56.6253 16.6302 56.6514 16.9115 56.6878 17.125H55.8206C55.7321 16.9167 55.417 16.5 54.8753 15.875L54.7972 15.7812L48.0941 7.89844V8.07812C48.1253 12.9531 48.1774 15.5312 48.2503 15.8125C48.3128 16.0521 48.4222 16.2188 48.5784 16.3125C48.7399 16.4062 48.9951 16.4531 49.3441 16.4531H49.5784V17C49.5003 16.9948 49.3857 16.9896 49.2347 16.9844C48.5055 16.9531 48.0081 16.9375 47.7425 16.9375C47.4873 16.9375 47.2034 16.9427 46.8909 16.9531C46.5837 16.9635 46.2581 16.9792 45.9144 17V16.4609C45.9456 16.4609 45.9795 16.4635 46.0159 16.4688C46.0576 16.4688 46.1097 16.4688 46.1722 16.4688C46.8701 16.4688 47.2243 15.5026 47.2347 13.5703C47.2399 13.0807 47.2425 12.6979 47.2425 12.4219L47.2816 10.3438C47.2868 9.89583 47.2894 9.46094 47.2894 9.03906C47.2946 8.61198 47.2972 8.125 47.2972 7.57812C47.2972 7.13021 47.2113 6.82031 47.0394 6.64844C46.8675 6.47656 46.5628 6.39062 46.1253 6.39062H45.9144V5.85156ZM61.4613 9.01562C61.456 9.21354 61.4482 9.49479 61.4378 9.85938C61.3701 11.9531 61.3363 13.4271 61.3363 14.2812V15.1094C61.3363 15.7135 61.3935 16.0938 61.5081 16.25C61.6227 16.4062 61.8467 16.4844 62.18 16.4844C62.2113 16.4844 62.2529 16.4818 62.305 16.4766C62.3571 16.4714 62.3962 16.4688 62.4222 16.4688V17C61.9795 16.9688 61.6227 16.9479 61.3519 16.9375C61.081 16.9271 60.8519 16.9219 60.6644 16.9219C60.4977 16.9219 60.2842 16.9271 60.0238 16.9375C59.7685 16.9479 59.3831 16.9688 58.8675 17V16.4531H59.0628C59.7087 16.4531 60.0342 15.8177 60.0394 14.5469C60.0394 14.3646 60.0394 14.2214 60.0394 14.1172L60.0706 12.1875C60.0706 12.0469 60.0732 11.8698 60.0784 11.6562C60.0837 11.4427 60.0863 11.2995 60.0863 11.2266C60.0863 10.8047 60.0446 10.526 59.9613 10.3906C59.8831 10.2552 59.7373 10.1875 59.5238 10.1875C59.4821 10.1875 59.4196 10.1927 59.3363 10.2031C59.2581 10.2083 59.1722 10.2161 59.0784 10.2266L59.0003 9.73438C59.4118 9.65625 59.8206 9.55729 60.2269 9.4375C60.6383 9.31771 61.0498 9.17708 61.4613 9.01562ZM60.6175 5.33594L61.1722 5.75C61.318 5.85938 61.4248 5.96875 61.4925 6.07812C61.5602 6.1875 61.5941 6.30208 61.5941 6.42188C61.5941 6.54167 61.5654 6.64583 61.5081 6.73438C61.456 6.81771 61.3545 6.91667 61.2034 7.03125L60.6175 7.47656L60.0706 7.04688C59.9196 6.92708 59.8102 6.81771 59.7425 6.71875C59.6748 6.61458 59.6409 6.50521 59.6409 6.39062C59.6409 6.27604 59.667 6.17708 59.7191 6.09375C59.7712 6.00521 59.8779 5.90104 60.0394 5.78125L60.6175 5.33594ZM70.3909 12.6328H66.5784C66.2816 12.6328 66.0081 12.638 65.7581 12.6484C65.5081 12.6589 65.2764 12.6745 65.0628 12.6953V12.9844C65.0628 14.0052 65.2972 14.7943 65.7659 15.3516C66.2399 15.9089 66.9066 16.1875 67.7659 16.1875C68.1462 16.1875 68.5212 16.125 68.8909 16C69.2607 15.8698 69.654 15.6693 70.0706 15.3984L70.3753 15.8984C69.8389 16.3359 69.3024 16.6667 68.7659 16.8906C68.2347 17.1146 67.7087 17.2266 67.1878 17.2266C66.1774 17.2266 65.3441 16.8672 64.6878 16.1484C64.0316 15.4245 63.7034 14.4974 63.7034 13.3672C63.7034 12.1641 64.0472 11.1536 64.7347 10.3359C65.4222 9.51823 66.2607 9.10938 67.2503 9.10938C68.1722 9.10938 68.9066 9.41667 69.4534 10.0312C70.0003 10.6458 70.3128 11.513 70.3909 12.6328ZM68.9456 11.8125C68.7894 11.1719 68.5524 10.6823 68.2347 10.3438C67.917 10 67.5368 9.82812 67.0941 9.82812C66.5941 9.82812 66.1644 10.0286 65.805 10.4297C65.4508 10.8307 65.2191 11.3724 65.1097 12.0547C66.1409 12.0547 66.9508 12.0365 67.5394 12C68.1331 11.9635 68.6019 11.901 68.9456 11.8125ZM73.8831 4.92188C73.8519 5.89062 73.8337 7.15104 73.8284 8.70312C73.8232 9.30208 73.8206 9.73177 73.8206 9.99219L73.805 11.5938V12.8047V14.4375V15.0781C73.805 15.6771 73.8701 16.0573 74.0003 16.2188C74.1357 16.375 74.3883 16.4531 74.7581 16.4531H74.9378V17C74.5784 16.974 74.2399 16.9557 73.9222 16.9453C73.6097 16.9297 73.3337 16.9219 73.0941 16.9219C72.8493 16.9219 72.581 16.9297 72.2894 16.9453C71.9977 16.9557 71.693 16.974 71.3753 17L71.3675 16.4531C71.404 16.4531 71.4482 16.4557 71.5003 16.4609C71.5576 16.4661 71.5993 16.4688 71.6253 16.4688C71.9899 16.4688 72.2321 16.375 72.3519 16.1875C72.4769 15.9948 72.5394 15.4401 72.5394 14.5234V13.9453L72.5706 8.07031V6.72656C72.5706 6.5026 72.5212 6.33594 72.4222 6.22656C72.3284 6.11198 72.1852 6.05469 71.9925 6.05469C71.9196 6.05469 71.7842 6.07292 71.5863 6.10938C71.5602 6.11458 71.542 6.11719 71.5316 6.11719L71.4144 5.60938C71.8519 5.53646 72.2738 5.44271 72.68 5.32812C73.0915 5.21354 73.4925 5.07812 73.8831 4.92188ZM81.3831 9.42969C81.3831 9.7474 81.3988 10.0677 81.43 10.3906C81.4665 10.7135 81.5159 11.0391 81.5784 11.3672L80.9847 11.4609C80.9222 10.9193 80.7503 10.5156 80.4691 10.25C80.1878 9.98438 79.7946 9.85156 79.2894 9.85156C78.8519 9.85156 78.4925 9.97135 78.2113 10.2109C77.93 10.4453 77.7894 10.7448 77.7894 11.1094C77.7894 11.6875 78.404 12.1458 79.6331 12.4844C79.8467 12.5417 80.0107 12.5859 80.1253 12.6172C80.7399 12.7891 81.1878 13.0339 81.4691 13.3516C81.7555 13.6693 81.8988 14.0859 81.8988 14.6016C81.8988 15.362 81.5993 15.9896 81.0003 16.4844C80.4066 16.9792 79.6435 17.2266 78.7113 17.2266C78.3727 17.2266 78.0264 17.1901 77.6722 17.1172C77.318 17.0443 76.956 16.9349 76.5863 16.7891C76.5915 16.737 76.5941 16.6823 76.5941 16.625C76.5993 16.5677 76.6019 16.4792 76.6019 16.3594C76.6019 16.1198 76.5863 15.862 76.555 15.5859C76.529 15.3047 76.4873 15.0078 76.43 14.6953L77.0159 14.5547C77.0993 15.2005 77.3024 15.6849 77.6253 16.0078C77.9482 16.3255 78.3962 16.4844 78.9691 16.4844C79.4899 16.4844 79.9144 16.3594 80.2425 16.1094C80.5758 15.8542 80.7425 15.526 80.7425 15.125C80.7425 14.5625 80.1904 14.1146 79.0863 13.7812C78.9769 13.7448 78.8962 13.7188 78.8441 13.7031C78.0524 13.4635 77.4951 13.1693 77.1722 12.8203C76.8545 12.4714 76.6956 12.0078 76.6956 11.4297C76.6956 10.763 76.9613 10.2109 77.4925 9.77344C78.0238 9.33073 78.7034 9.10938 79.5316 9.10938C79.7868 9.10938 80.0628 9.13542 80.3597 9.1875C80.6618 9.23958 81.0029 9.32031 81.3831 9.42969ZM89.9691 12.6328H86.1566C85.8597 12.6328 85.5863 12.638 85.3363 12.6484C85.0863 12.6589 84.8545 12.6745 84.6409 12.6953V12.9844C84.6409 14.0052 84.8753 14.7943 85.3441 15.3516C85.818 15.9089 86.4847 16.1875 87.3441 16.1875C87.7243 16.1875 88.0993 16.125 88.4691 16C88.8389 15.8698 89.2321 15.6693 89.6488 15.3984L89.9534 15.8984C89.417 16.3359 88.8805 16.6667 88.3441 16.8906C87.8128 17.1146 87.2868 17.2266 86.7659 17.2266C85.7555 17.2266 84.9222 16.8672 84.2659 16.1484C83.6097 15.4245 83.2816 14.4974 83.2816 13.3672C83.2816 12.1641 83.6253 11.1536 84.3128 10.3359C85.0003 9.51823 85.8389 9.10938 86.8284 9.10938C87.7503 9.10938 88.4847 9.41667 89.0316 10.0312C89.5784 10.6458 89.8909 11.513 89.9691 12.6328ZM88.5238 11.8125C88.3675 11.1719 88.1305 10.6823 87.8128 10.3438C87.4951 10 87.1149 9.82812 86.6722 9.82812C86.1722 9.82812 85.7425 10.0286 85.3831 10.4297C85.029 10.8307 84.7972 11.3724 84.6878 12.0547C85.7191 12.0547 86.529 12.0365 87.1175 12C87.7113 11.9635 88.18 11.901 88.5238 11.8125ZM93.4613 9.01562L93.3675 10.3281C93.956 9.90104 94.4665 9.59115 94.8988 9.39844C95.3363 9.20573 95.7373 9.10938 96.1019 9.10938C96.8675 9.10938 97.443 9.32552 97.8284 9.75781C98.2139 10.1901 98.4066 10.8385 98.4066 11.7031C98.4066 11.7083 98.404 11.9375 98.3988 12.3906C98.3935 12.8438 98.3909 13.2969 98.3909 13.75C98.3909 13.9427 98.3883 14.1849 98.3831 14.4766C98.3779 14.763 98.3753 14.9583 98.3753 15.0625C98.3753 15.6458 98.4274 16.026 98.5316 16.2031C98.6357 16.3802 98.8337 16.4688 99.1253 16.4688C99.1409 16.4688 99.1696 16.4661 99.2113 16.4609C99.2581 16.4557 99.292 16.4531 99.3128 16.4531V17C98.8441 16.9688 98.4899 16.9479 98.2503 16.9375C98.0107 16.9271 97.8102 16.9219 97.6488 16.9219C97.3988 16.9219 97.1279 16.9297 96.8363 16.9453C96.5446 16.9557 96.2477 16.974 95.9456 17L95.9378 16.4531H96.055C96.7217 16.4531 97.0602 15.8438 97.0706 14.625C97.0758 14.5573 97.0784 14.5052 97.0784 14.4688L97.0941 12.7891V12.5078C97.0941 11.5443 96.9821 10.9062 96.7581 10.5938C96.5342 10.276 96.1488 10.1172 95.6019 10.1172C95.2998 10.1172 94.9639 10.1901 94.5941 10.3359C94.2295 10.4766 93.8415 10.6875 93.43 10.9688C93.4092 11.5104 93.3935 12.0234 93.3831 12.5078C93.3727 12.987 93.3675 13.4219 93.3675 13.8125V14.8906C93.3675 15.5781 93.417 16.013 93.5159 16.1953C93.6201 16.3776 93.8206 16.4688 94.1175 16.4688C94.1383 16.4688 94.1696 16.4661 94.2113 16.4609C94.2581 16.4557 94.2946 16.4531 94.3206 16.4531V17C93.8727 16.9688 93.5185 16.9479 93.2581 16.9375C93.0029 16.9271 92.792 16.9219 92.6253 16.9219C92.4691 16.9219 92.2633 16.9271 92.0081 16.9375C91.7529 16.9479 91.3962 16.9688 90.9378 17L90.93 16.4531H91.0784C91.7295 16.4531 92.0576 15.8203 92.0628 14.5547C92.0628 14.3672 92.0654 14.2214 92.0706 14.1172L92.0863 12.2031V11.4297C92.0863 10.9193 92.0472 10.5859 91.9691 10.4297C91.8909 10.2682 91.7477 10.1875 91.5394 10.1875C91.4977 10.1875 91.443 10.1927 91.3753 10.2031C91.3128 10.2135 91.2451 10.2292 91.1722 10.25L91.0784 9.76562C91.4691 9.69271 91.8597 9.59375 92.2503 9.46875C92.6462 9.34375 93.0498 9.19271 93.4613 9.01562Z" fill="#E2DCCF"/>
<path d="M9.58154 37.9192L52.6585 37.9192" stroke="#E2DCCF"/>
<path d="M74.2135 37.7473H112.31" stroke="#E2DCCF"/>
<path d="M11.061 31.3723H11.3345C11.7043 31.3723 11.9673 31.328 12.1235 31.2395C12.2798 31.1458 12.3892 30.9765 12.4517 30.7317C12.4985 30.5702 12.5298 29.9843 12.5454 28.9739C12.5662 27.9635 12.5767 26.3905 12.5767 24.2551V21.7629H10.9985C10.2329 21.7629 9.71468 21.8671 9.44385 22.0754C9.17822 22.2786 8.98031 22.7109 8.8501 23.3723L8.34229 23.2629C8.44124 22.8098 8.51676 22.3645 8.56885 21.927C8.62093 21.4895 8.64697 21.0598 8.64697 20.6379C8.80322 20.7369 9.11833 20.8072 9.59229 20.8489C10.0715 20.8905 10.9074 20.9114 12.1001 20.9114H14.0063C15.5897 20.9114 16.6079 20.8931 17.061 20.8567C17.5194 20.815 17.8397 20.7421 18.022 20.6379C18.022 20.69 18.0194 20.7734 18.0142 20.8879C18.009 20.9973 18.0063 21.0806 18.0063 21.1379C18.0063 21.4661 18.0194 21.8046 18.0454 22.1536C18.0767 22.5025 18.1209 22.8619 18.1782 23.2317L17.686 23.3254C17.6235 22.7369 17.4621 22.3359 17.2017 22.1223C16.9465 21.9088 16.4048 21.789 15.5767 21.7629H14.1001C14.0949 22.0598 14.0897 22.4791 14.0845 23.0208C14.0741 24.4426 14.0688 25.3984 14.0688 25.8879C14.0688 27.7369 14.0793 28.9895 14.1001 29.6458C14.1261 30.302 14.1678 30.7109 14.2251 30.8723C14.2928 31.0598 14.4048 31.19 14.561 31.2629C14.7173 31.3359 14.9569 31.3723 15.2798 31.3723H15.5532V31.9192C15.1209 31.8984 14.7121 31.8827 14.3267 31.8723C13.9465 31.8619 13.6053 31.8567 13.3032 31.8567C13.0376 31.8567 12.7095 31.8619 12.3188 31.8723C11.9334 31.8827 11.5142 31.8984 11.061 31.9192V31.3723ZM28.9126 26.5754C28.9126 25.0598 28.522 23.8176 27.7407 22.8489C26.9595 21.8749 25.9751 21.3879 24.7876 21.3879C23.647 21.3879 22.7303 21.8046 22.0376 22.6379C21.3501 23.4713 21.0063 24.5859 21.0063 25.9817C21.0063 27.5338 21.397 28.8072 22.1782 29.802C22.9647 30.7968 23.9465 31.2942 25.1235 31.2942C26.259 31.2942 27.173 30.8671 27.8657 30.0129C28.5636 29.1536 28.9126 28.0077 28.9126 26.5754ZM24.9595 20.5129C25.7511 20.5129 26.4569 20.6275 27.0767 20.8567C27.7017 21.0806 28.2668 21.4296 28.772 21.9036C29.3761 22.4765 29.8371 23.1405 30.1548 23.8958C30.4777 24.651 30.6392 25.453 30.6392 26.302C30.6392 27.1666 30.4699 27.9843 30.1313 28.7551C29.7928 29.526 29.311 30.19 28.686 30.7473C28.186 31.1952 27.6027 31.5468 26.936 31.802C26.2746 32.052 25.6105 32.177 24.9438 32.177C24.1105 32.177 23.3423 32.0234 22.6392 31.7161C21.9412 31.4088 21.3241 30.953 20.7876 30.3489C20.298 29.7968 19.923 29.177 19.6626 28.4895C19.4074 27.802 19.2798 27.078 19.2798 26.3176C19.2798 25.4947 19.4334 24.7187 19.7407 23.9895C20.0532 23.2551 20.5037 22.6119 21.0923 22.0598C21.6235 21.5598 22.2225 21.177 22.8892 20.9114C23.5558 20.6458 24.2459 20.5129 24.9595 20.5129ZM41.7407 26.5754C41.7407 25.0598 41.3501 23.8176 40.5688 22.8489C39.7876 21.8749 38.8032 21.3879 37.6157 21.3879C36.4751 21.3879 35.5584 21.8046 34.8657 22.6379C34.1782 23.4713 33.8345 24.5859 33.8345 25.9817C33.8345 27.5338 34.2251 28.8072 35.0063 29.802C35.7928 30.7968 36.7746 31.2942 37.9517 31.2942C39.0871 31.2942 40.0011 30.8671 40.6938 30.0129C41.3918 29.1536 41.7407 28.0077 41.7407 26.5754ZM37.7876 20.5129C38.5793 20.5129 39.285 20.6275 39.9048 20.8567C40.5298 21.0806 41.0949 21.4296 41.6001 21.9036C42.2043 22.4765 42.6652 23.1405 42.9829 23.8958C43.3058 24.651 43.4673 25.453 43.4673 26.302C43.4673 27.1666 43.298 27.9843 42.9595 28.7551C42.6209 29.526 42.1392 30.19 41.5142 30.7473C41.0142 31.1952 40.4308 31.5468 39.7642 31.802C39.1027 32.052 38.4386 32.177 37.772 32.177C36.9386 32.177 36.1704 32.0234 35.4673 31.7161C34.7694 31.4088 34.1522 30.953 33.6157 30.3489C33.1261 29.7968 32.7511 29.177 32.4907 28.4895C32.2355 27.802 32.1079 27.078 32.1079 26.3176C32.1079 25.4947 32.2616 24.7187 32.5688 23.9895C32.8813 23.2551 33.3319 22.6119 33.9204 22.0598C34.4517 21.5598 35.0506 21.177 35.7173 20.9114C36.384 20.6458 37.0741 20.5129 37.7876 20.5129ZM44.9673 20.7473C45.5246 20.7786 45.9465 20.802 46.2329 20.8176C46.5246 20.828 46.759 20.8333 46.936 20.8333C47.2746 20.8333 47.6053 20.828 47.9282 20.8176C48.2563 20.802 48.5819 20.7812 48.9048 20.7551V21.2942H48.6626C48.2511 21.2942 47.9725 21.4374 47.8267 21.7239C47.6808 22.0051 47.6079 22.6562 47.6079 23.677V25.2317L47.6313 30.9583C47.923 30.9739 48.1991 30.9869 48.4595 30.9973C48.7251 31.0025 48.9751 31.0051 49.2095 31.0051C50.6053 31.0051 51.5037 30.8775 51.9048 30.6223C52.311 30.3619 52.634 29.8619 52.8735 29.1223L53.436 29.2942C53.2746 29.7421 53.1313 30.1822 53.0063 30.6145C52.8813 31.0468 52.772 31.4817 52.6782 31.9192C51.8136 31.8931 51.0168 31.8749 50.2876 31.8645C49.5636 31.8489 48.884 31.8411 48.2485 31.8411C47.8006 31.8411 47.3006 31.8489 46.7485 31.8645C46.1965 31.8749 45.5454 31.8931 44.7954 31.9192V31.4114C44.8319 31.4166 44.8657 31.4218 44.897 31.427C44.9334 31.427 44.9855 31.427 45.0532 31.427C45.7563 31.4218 46.1105 30.4192 46.1157 28.4192C46.1157 27.9661 46.1183 27.6119 46.1235 27.3567L46.1392 25.2317C46.1392 25.0025 46.1418 24.7083 46.147 24.3489C46.1522 23.9895 46.1548 23.7395 46.1548 23.5989C46.1548 22.6405 46.0767 22.0181 45.9204 21.7317C45.7694 21.44 45.4725 21.2942 45.0298 21.2942H44.9673V20.7473ZM57.7876 29.9661L60.186 23.9973L59.7095 22.4661C59.5428 21.9452 59.3892 21.6197 59.2485 21.4895C59.1079 21.3593 58.8866 21.2942 58.5845 21.2942C58.5011 21.2942 58.436 21.2968 58.3892 21.302C58.3475 21.302 58.3084 21.3046 58.272 21.3098L58.2642 20.7708C58.7433 20.7968 59.1287 20.8176 59.4204 20.8333C59.7121 20.8437 59.9621 20.8489 60.1704 20.8489C60.3683 20.8489 60.6209 20.8437 60.9282 20.8333C61.2407 20.8176 61.66 20.7968 62.186 20.7708V21.3098H61.9751C61.6001 21.3098 61.3527 21.3463 61.2329 21.4192C61.1131 21.4869 61.0532 21.6171 61.0532 21.8098C61.0532 21.9244 61.0715 22.065 61.1079 22.2317C61.1496 22.3984 61.2433 22.7004 61.3892 23.1379L63.6079 29.9661C63.811 29.3984 64.0871 28.6119 64.436 27.6067C65.6548 24.1484 66.2642 22.2525 66.2642 21.9192C66.2642 21.6848 66.2017 21.526 66.0767 21.4426C65.9517 21.3541 65.6938 21.3098 65.3032 21.3098H65.1001V20.7708C65.4282 20.7916 65.7407 20.8072 66.0376 20.8176C66.3397 20.828 66.6131 20.8333 66.8579 20.8333C67.1392 20.8333 67.4256 20.828 67.7173 20.8176C68.0142 20.8072 68.3136 20.7916 68.6157 20.7708V21.3098H68.4907C68.3449 21.3098 68.2199 21.3228 68.1157 21.3489C68.0168 21.3749 67.9282 21.4166 67.8501 21.4739C67.6834 21.6041 67.2225 22.677 66.4673 24.6926L66.1235 25.6145L65.4673 27.3411C65.2746 27.8567 65.0194 28.5338 64.7017 29.3723C64.1287 30.8775 63.8136 31.7681 63.7563 32.0442H62.8423C62.7694 31.7734 62.6574 31.4062 62.5063 30.9426C62.4543 30.7864 62.4178 30.677 62.397 30.6145L60.5845 25.1692L58.4751 30.4114C58.4595 30.453 58.4282 30.5312 58.3813 30.6458C58.1626 31.151 57.9959 31.6171 57.8813 32.0442H56.9673C56.9308 31.7838 56.6235 30.8619 56.0454 29.2786C55.7746 28.5338 55.561 27.9426 55.4048 27.5051L54.5532 25.1692C54.4126 24.7734 54.2329 24.2499 54.0142 23.5989C53.4881 22.052 53.0063 21.2786 52.5688 21.2786C52.5428 21.2786 52.5116 21.2812 52.4751 21.2864C52.4438 21.2916 52.397 21.2994 52.3345 21.3098L52.3267 20.7708C52.66 20.7916 52.9751 20.8072 53.272 20.8176C53.5688 20.828 53.8423 20.8333 54.0923 20.8333C54.3892 20.8333 54.6938 20.828 55.0063 20.8176C55.3188 20.8072 55.6366 20.7916 55.9595 20.7708V21.3098C55.5845 21.3098 55.3371 21.3437 55.2173 21.4114C55.0975 21.4791 55.0376 21.6119 55.0376 21.8098C55.0376 22.0234 55.1652 22.4921 55.4204 23.2161L55.4517 23.2942L57.7876 29.9661ZM79.147 26.5754C79.147 25.0598 78.7563 23.8176 77.9751 22.8489C77.1938 21.8749 76.2095 21.3879 75.022 21.3879C73.8813 21.3879 72.9647 21.8046 72.272 22.6379C71.5845 23.4713 71.2407 24.5859 71.2407 25.9817C71.2407 27.5338 71.6313 28.8072 72.4126 29.802C73.1991 30.7968 74.1808 31.2942 75.3579 31.2942C76.4933 31.2942 77.4074 30.8671 78.1001 30.0129C78.798 29.1536 79.147 28.0077 79.147 26.5754ZM75.1938 20.5129C75.9855 20.5129 76.6912 20.6275 77.311 20.8567C77.936 21.0806 78.5011 21.4296 79.0063 21.9036C79.6105 22.4765 80.0715 23.1405 80.3892 23.8958C80.7121 24.651 80.8735 25.453 80.8735 26.302C80.8735 27.1666 80.7043 27.9843 80.3657 28.7551C80.0272 29.526 79.5454 30.19 78.9204 30.7473C78.4204 31.1952 77.8371 31.5468 77.1704 31.802C76.509 32.052 75.8449 32.177 75.1782 32.177C74.3449 32.177 73.5767 32.0234 72.8735 31.7161C72.1756 31.4088 71.5584 30.953 71.022 30.3489C70.5324 29.7968 70.1574 29.177 69.897 28.4895C69.6418 27.802 69.5142 27.078 69.5142 26.3176C69.5142 25.4947 69.6678 24.7187 69.9751 23.9895C70.2876 23.2551 70.7381 22.6119 71.3267 22.0598C71.8579 21.5598 72.4569 21.177 73.1235 20.9114C73.7902 20.6458 74.4803 20.5129 75.1938 20.5129ZM84.9829 26.4114C85.2329 26.4374 85.4673 26.4556 85.686 26.4661C85.91 26.4765 86.1079 26.4817 86.2798 26.4817C86.4256 26.4817 86.5923 26.4791 86.7798 26.4739C86.9673 26.4635 87.1704 26.4478 87.3892 26.427C87.8892 26.1249 88.2563 25.776 88.4907 25.3801C88.7251 24.9791 88.8423 24.5025 88.8423 23.9504C88.8423 23.2265 88.6079 22.6458 88.1392 22.2083C87.6704 21.7708 87.0402 21.552 86.2485 21.552C86.035 21.552 85.8267 21.5624 85.6235 21.5833C85.4204 21.5989 85.2199 21.6249 85.022 21.6614C85.0063 22.3072 84.9959 22.9713 84.9907 23.6536C84.9855 24.3359 84.9829 25.2551 84.9829 26.4114ZM82.2017 31.4114C82.2381 31.4166 82.272 31.4218 82.3032 31.427C82.3397 31.427 82.3918 31.427 82.4595 31.427C83.1522 31.427 83.5037 30.453 83.5142 28.5051C83.5194 28.0155 83.5246 27.6327 83.5298 27.3567L83.561 25.2239C83.5662 24.7655 83.5688 24.3202 83.5688 23.8879C83.5741 23.4556 83.5767 22.9869 83.5767 22.4817C83.5767 22.0338 83.4933 21.7239 83.3267 21.552C83.16 21.3801 82.8631 21.2942 82.436 21.2942H82.3735V20.7473C82.7225 20.7734 83.0662 20.7916 83.4048 20.802C83.7485 20.8124 84.0819 20.8176 84.4048 20.8176C84.7537 20.8176 85.186 20.8072 85.7017 20.7864C86.2225 20.7603 86.5688 20.7473 86.7407 20.7473C87.8084 20.7473 88.6834 21.0286 89.3657 21.5911C90.048 22.1536 90.3892 22.8593 90.3892 23.7083C90.3892 24.3385 90.2173 24.901 89.8735 25.3958C89.535 25.8853 89.0246 26.3046 88.3423 26.6536L89.8032 28.8645C89.8553 28.9478 89.9334 29.0676 90.0376 29.2239C91.048 30.7655 91.8761 31.5364 92.522 31.5364H92.6001V31.9817C92.5272 31.9869 92.4178 31.9973 92.272 32.0129C91.9334 32.0442 91.686 32.0598 91.5298 32.0598C90.9777 32.0598 90.5402 31.9869 90.2173 31.8411C89.8996 31.69 89.5845 31.401 89.272 30.9739C89.2199 30.9062 88.9308 30.4426 88.4048 29.5833C87.884 28.7239 87.3579 27.914 86.8267 27.1536C86.6287 27.1744 86.4178 27.19 86.1938 27.2004C85.9699 27.2109 85.7225 27.2161 85.4517 27.2161H84.9829V29.6145C84.9829 30.3958 85.0636 30.8905 85.2251 31.0989C85.3866 31.302 85.7069 31.4036 86.186 31.4036C86.2017 31.4036 86.2225 31.401 86.2485 31.3958C86.2746 31.3905 86.2954 31.3879 86.311 31.3879C86.3319 31.3879 86.3475 31.3905 86.3579 31.3958C86.3735 31.401 86.384 31.4036 86.3892 31.4036V31.9192C86.0194 31.8984 85.6522 31.8827 85.2876 31.8723C84.923 31.8619 84.561 31.8567 84.2017 31.8567C84.009 31.8567 83.7381 31.8619 83.3892 31.8723C83.0402 31.8827 82.6444 31.8984 82.2017 31.9192V31.4114ZM99.686 20.7708C100.019 20.7916 100.35 20.8072 100.678 20.8176C101.006 20.828 101.327 20.8333 101.639 20.8333C101.863 20.8333 102.121 20.828 102.413 20.8176C102.704 20.8072 103.025 20.7916 103.374 20.7708V21.2942H103.303C102.709 21.2942 102.139 21.552 101.592 22.0676L101.514 22.1458L97.6392 25.8567L101.209 29.4426C101.303 29.5364 101.436 29.6692 101.608 29.8411C102.613 30.8723 103.35 31.3879 103.819 31.3879C103.876 31.3879 103.92 31.3879 103.952 31.3879C103.983 31.3827 104.006 31.3775 104.022 31.3723L104.03 31.9192C103.946 31.914 103.834 31.9088 103.694 31.9036C103.152 31.8723 102.782 31.8567 102.584 31.8567C102.387 31.8567 102.16 31.8619 101.905 31.8723C101.655 31.8827 101.387 31.8984 101.1 31.9192C101.105 31.9036 101.108 31.8931 101.108 31.8879C101.113 31.8775 101.116 31.8619 101.116 31.8411C101.116 31.5702 100.285 30.6093 98.6235 28.9583C97.6183 27.953 96.8006 27.1275 96.1704 26.4817L99.1782 23.2317C99.3136 23.0806 99.4985 22.8827 99.7329 22.6379C100.259 22.0702 100.522 21.7343 100.522 21.6301C100.522 21.5155 100.47 21.4322 100.366 21.3801C100.267 21.3228 100.105 21.2942 99.8813 21.2942H99.686V20.7708ZM93.4673 20.7708C93.8371 20.7916 94.1912 20.8072 94.5298 20.8176C94.8683 20.828 95.1756 20.8333 95.4517 20.8333C95.7746 20.8333 96.1027 20.828 96.436 20.8176C96.7694 20.8072 97.1079 20.7916 97.4517 20.7708V21.2942H97.3501C96.8813 21.2942 96.5662 21.4114 96.4048 21.6458C96.2485 21.8801 96.1704 22.4843 96.1704 23.4583V29.1692C96.1704 30.19 96.2459 30.815 96.397 31.0442C96.548 31.2734 96.8501 31.3879 97.3032 31.3879C97.3293 31.3879 97.3709 31.3853 97.4282 31.3801C97.4855 31.3749 97.5298 31.3723 97.561 31.3723V31.9192C97.1704 31.8984 96.7954 31.8827 96.436 31.8723C96.0819 31.8619 95.7537 31.8567 95.4517 31.8567C95.2121 31.8567 94.9178 31.8619 94.5688 31.8723C94.2199 31.8827 93.8371 31.8984 93.4204 31.9192V31.3801C93.4517 31.3801 93.4855 31.3827 93.522 31.3879C93.5584 31.3879 93.6079 31.3879 93.6704 31.3879C94.0819 31.3879 94.3605 31.2447 94.5063 30.9583C94.6574 30.6666 94.7329 30.0208 94.7329 29.0208C94.7329 28.8853 94.7303 28.6301 94.7251 28.2551C94.7199 27.8801 94.7173 27.5754 94.7173 27.3411V25.2629C94.7173 25.0025 94.7199 24.6718 94.7251 24.2708C94.7303 23.8645 94.7329 23.5885 94.7329 23.4426C94.7329 22.5416 94.6574 21.9583 94.5063 21.6926C94.3605 21.427 94.0819 21.2942 93.6704 21.2942C93.6548 21.2942 93.6235 21.2968 93.5767 21.302C93.5298 21.3072 93.4933 21.3098 93.4673 21.3098V20.7708ZM111.295 21.1067C111.295 21.4921 111.316 21.8723 111.358 22.2473C111.405 22.6223 111.475 22.9921 111.569 23.3567L110.959 23.4739C110.871 22.828 110.621 22.3489 110.209 22.0364C109.803 21.7239 109.228 21.5676 108.483 21.5676C107.795 21.5676 107.236 21.7343 106.803 22.0676C106.376 22.401 106.163 22.8306 106.163 23.3567C106.163 24.2213 107.079 24.9609 108.913 25.5754C109.157 25.6536 109.345 25.7161 109.475 25.7629C110.314 26.0546 110.931 26.4296 111.327 26.8879C111.722 27.3411 111.92 27.9036 111.92 28.5754C111.92 29.6119 111.527 30.453 110.741 31.0989C109.954 31.7395 108.913 32.0598 107.616 32.0598C107.121 32.0598 106.637 32.0181 106.163 31.9348C105.694 31.8567 105.217 31.7317 104.733 31.5598C104.738 31.5077 104.741 31.4478 104.741 31.3801C104.746 31.3072 104.749 31.203 104.749 31.0676C104.749 30.6978 104.728 30.3333 104.686 29.9739C104.644 29.6145 104.582 29.2551 104.499 28.8958L105.202 28.7317C105.29 29.5859 105.558 30.2109 106.006 30.6067C106.454 31.0025 107.118 31.2004 107.999 31.2004C108.769 31.2004 109.397 31.0077 109.881 30.6223C110.366 30.2317 110.608 29.7317 110.608 29.1223C110.608 28.2577 109.853 27.5859 108.342 27.1067C108.129 27.039 107.962 26.9843 107.842 26.9426C106.795 26.6041 106.045 26.19 105.592 25.7004C105.139 25.2109 104.913 24.5859 104.913 23.8254C104.913 22.9296 105.267 22.1822 105.975 21.5833C106.683 20.9843 107.571 20.6848 108.639 20.6848C109.03 20.6848 109.426 20.7161 109.827 20.7786C110.228 20.8411 110.717 20.9504 111.295 21.1067Z" fill="#E2DCCF"/>
<path d="M54.871 34.6482C55.076 34.6599 55.2797 34.6687 55.4818 34.6746C55.684 34.6804 55.8817 34.6833 56.0751 34.6833C56.2391 34.6833 56.4222 34.6804 56.6244 34.6746C56.8265 34.6687 57.0404 34.6599 57.266 34.6482V34.9514H57.1913C57.0009 34.9514 56.8573 34.9734 56.7606 35.0173C56.6669 35.0613 56.601 35.1345 56.5629 35.2371C56.5394 35.3044 56.5219 35.4143 56.5101 35.5667C56.5013 35.7161 56.4969 35.9607 56.4969 36.3005V37.175V39.3635C56.4969 39.7092 56.5043 39.9524 56.5189 40.093C56.5365 40.2336 56.5629 40.3376 56.598 40.405C56.6361 40.4783 56.7035 40.531 56.8002 40.5632C56.8998 40.5955 57.0389 40.6116 57.2177 40.6116H57.3099V40.9192C57.058 40.9075 56.8251 40.8987 56.6112 40.8928C56.3973 40.887 56.2186 40.884 56.0751 40.884C55.9052 40.884 55.7133 40.887 55.4994 40.8928C55.2855 40.8987 55.0614 40.9075 54.827 40.9192V40.6116H54.9149C55.0966 40.6116 55.2357 40.5955 55.3324 40.5632C55.4291 40.531 55.4965 40.4783 55.5345 40.405C55.5756 40.3259 55.6034 40.197 55.618 40.0183C55.6356 39.8367 55.6444 39.51 55.6444 39.0383V38.344V36.6257C55.6444 36.1658 55.6385 35.8391 55.6268 35.6458C55.6151 35.4495 55.5961 35.3132 55.5697 35.2371C55.5345 35.1345 55.4701 35.0613 55.3763 35.0173C55.2855 34.9734 55.1434 34.9514 54.9501 34.9514H54.871V34.6482ZM57.8636 34.6482C58.0013 34.6599 58.1346 34.6687 58.2635 34.6746C58.3954 34.6804 58.5243 34.6833 58.6503 34.6833C58.744 34.6833 58.8539 34.6804 58.9799 34.6746C59.1058 34.6687 59.2421 34.6599 59.3885 34.6482C59.4266 34.7449 59.4794 34.8445 59.5468 34.947C59.6141 35.0496 59.6991 35.1624 59.8016 35.2854L63.4271 39.5745C63.4183 39.1292 63.4095 38.5388 63.4008 37.8035C63.3773 36.2595 63.351 35.429 63.3217 35.3118C63.2865 35.177 63.2235 35.0833 63.1327 35.0305C63.0448 34.9778 62.8998 34.9514 62.6976 34.9514H62.5614V34.6482C62.5966 34.6482 62.6493 34.6497 62.7196 34.6526C63.1356 34.6731 63.4286 34.6833 63.5985 34.6833C63.7714 34.6833 64.0731 34.6731 64.5038 34.6526C64.5653 34.6497 64.6122 34.6482 64.6444 34.6482L64.64 34.9514C64.6224 34.9485 64.6034 34.947 64.5829 34.947C64.5624 34.9441 64.5345 34.9426 64.4994 34.9426C64.1068 34.9426 63.9076 35.489 63.9017 36.5818C63.8988 36.8572 63.8973 37.0725 63.8973 37.2278L63.8798 38.3967C63.8739 38.5696 63.8695 38.7483 63.8666 38.9329C63.8666 39.1145 63.8666 39.365 63.8666 39.6843C63.8666 40.0388 63.871 40.3157 63.8798 40.5149C63.8885 40.7112 63.9032 40.8694 63.9237 40.9895H63.4359C63.3861 40.8723 63.2089 40.6379 62.9042 40.2864L62.8602 40.2336L59.0897 35.7996V35.9006C59.1073 38.6428 59.1366 40.093 59.1776 40.2512C59.2128 40.386 59.2743 40.4797 59.3622 40.5325C59.453 40.5852 59.5966 40.6116 59.7928 40.6116H59.9247V40.9192C59.8807 40.9163 59.8163 40.9133 59.7313 40.9104C59.3212 40.8928 59.0414 40.884 58.892 40.884C58.7484 40.884 58.5887 40.887 58.413 40.8928C58.2401 40.8987 58.057 40.9075 57.8636 40.9192V40.616C57.8812 40.616 57.9003 40.6174 57.9208 40.6204C57.9442 40.6204 57.9735 40.6204 58.0087 40.6204C58.4012 40.6204 58.6005 40.0769 58.6063 38.99C58.6093 38.7146 58.6107 38.4993 58.6107 38.344L58.6327 37.175C58.6356 36.9231 58.6371 36.6785 58.6371 36.4412C58.64 36.2009 58.6415 35.927 58.6415 35.6194C58.6415 35.3674 58.5931 35.1931 58.4965 35.0964C58.3998 34.9998 58.2284 34.9514 57.9823 34.9514H57.8636V34.6482ZM70.6429 34.8459V34.9954C70.6429 35.2004 70.6503 35.4143 70.6649 35.637C70.6796 35.8567 70.7015 36.0881 70.7308 36.3313L70.41 36.384C70.3514 35.9622 70.1522 35.634 69.8124 35.3997C69.4725 35.1624 69.0287 35.0437 68.4808 35.0437C67.7513 35.0437 67.1874 35.2678 66.7889 35.7161C66.3934 36.1614 66.1957 36.7942 66.1957 37.6145C66.1957 38.4905 66.4227 39.1995 66.8768 39.7415C67.3339 40.2805 67.9257 40.55 68.6522 40.55C69.1093 40.55 69.5048 40.4446 69.8387 40.2336C70.1757 40.0227 70.4379 39.7136 70.6254 39.3064L70.9198 39.4514C70.826 39.6418 70.7411 39.8367 70.6649 40.0359C70.5887 40.2322 70.5214 40.4299 70.4628 40.6292C70.1464 40.7727 69.8241 40.8811 69.496 40.9543C69.1678 41.0276 68.8383 41.0642 68.5072 41.0642C67.5345 41.0642 66.7465 40.7639 66.1429 40.1633C65.5424 39.5598 65.2421 38.7673 65.2421 37.7859C65.2421 36.8191 65.5599 36.0325 66.1957 35.426C66.8314 34.8167 67.6532 34.512 68.661 34.512C68.9598 34.512 69.2748 34.5398 69.6058 34.5955C69.9398 34.6511 70.2855 34.7346 70.6429 34.8459ZM72.4052 39.7766L72.7567 40.0359C72.8534 40.1091 72.9237 40.1765 72.9677 40.238C73.0145 40.2966 73.038 40.3523 73.038 40.405C73.038 40.4753 73.0175 40.5398 72.9764 40.5984C72.9384 40.657 72.871 40.7214 72.7743 40.7917L72.4315 41.0466L72.1107 40.7917C72.0052 40.7156 71.932 40.6482 71.891 40.5896C71.85 40.531 71.8295 40.4695 71.8295 40.405C71.8295 40.3494 71.8441 40.2981 71.8734 40.2512C71.9056 40.2014 71.9789 40.1296 72.0931 40.0359L72.4052 39.7766Z" fill="#E2DCCF"/>
<path d="M8.0365 2.24683H111.667" stroke="#E2DCCF" stroke-width="0.5"/>
</svg>
