<svg width="35" height="28" viewBox="0 0 35 28" fill="none" xmlns="http://www.w3.org/2000/svg">
<path d="M34.1666 3.55544C32.9139 4.09894 31.589 4.45822 30.2333 4.62211C31.6636 3.76765 32.7354 2.42341 33.25 0.838777C31.9059 1.63888 30.4346 2.20261 28.9 2.50544C27.8742 1.39306 26.5083 0.652604 25.0163 0.400196C23.5244 0.147788 21.9909 0.397708 20.6563 1.11076C19.3217 1.82381 18.2615 2.95966 17.642 4.34017C17.0226 5.72068 16.8788 7.26776 17.2333 8.73878C14.5157 8.60132 11.8574 7.8937 9.43107 6.66188C7.00476 5.43006 4.86472 3.7016 3.14998 1.58878C2.54854 2.63906 2.23251 3.82848 2.23331 5.03878C2.23118 6.16275 2.50701 7.2698 3.03624 8.26138C3.56547 9.25296 4.33168 10.0983 5.26665 10.7221C4.17994 10.6925 3.11646 10.4009 2.16665 9.87211V9.95544C2.17479 11.5303 2.72664 13.0539 3.72884 14.2687C4.73104 15.4835 6.12207 16.3148 7.66665 16.6221C7.07207 16.8031 6.45477 16.8985 5.83331 16.9054C5.40313 16.9004 4.97402 16.8614 4.54998 16.7888C4.98983 18.1435 5.84102 19.3274 6.9851 20.1757C8.12919 21.0241 9.50927 21.4947 10.9333 21.5221C8.52865 23.4142 5.55979 24.4469 2.49998 24.4554C1.94287 24.4573 1.38621 24.4239 0.833313 24.3554C3.95736 26.3725 7.598 27.4433 11.3166 27.4388C13.8828 27.4654 16.4285 26.9805 18.8052 26.0122C21.1818 25.044 23.3417 23.6119 25.1587 21.7996C26.9756 19.9873 28.4133 17.8311 29.3876 15.457C30.3619 13.0828 30.8534 10.5383 30.8333 7.97211C30.8333 7.68878 30.8333 7.38878 30.8333 7.08878C32.1411 6.11346 33.2691 4.91782 34.1666 3.55544Z" fill="#E2DCCF"/>
</svg>
